<svg version="1.2" xmlns="http://www.w3.org/2000/svg" viewBox="0 0 1500 1000" width="750" height="500">
	<title>3235813-ai</title>
	<style>
		.s0 { fill: #e0e0e0 } 
		.s1 { fill: #f5f5f5 } 
		.s2 { fill: #ffffff } 
		.s3 { fill: none;stroke: #fbfbfb;stroke-width: .5 } 
		.s4 { fill: #ebebeb } 
		.s5 { fill: #263238 } 
		.s6 { fill: #455a64 } 
		.s7 { fill: #0f4c81 } 
		.s8 { fill: #fafafa } 
		.s9 { fill: none;stroke: #87a5c0;stroke-width: 2 } 
		.s10 { fill: #000000 } 
		.s11 { fill: #ffbe9d } 
		.s12 { fill: #eb996e } 
		.s13 { fill: none;stroke: #4f595e;stroke-width: .4 } 
	</style>
	<g id="Background Complete">
		<g id="&lt;Group&gt;">
			<g id="&lt;Group&gt;">
				<g id="&lt;Group&gt;">
					<g id="&lt;Group&gt;">
						<path id="&lt;Path&gt;" class="s0" d="m376.5 409.1h-183.5v-265.9h183.5z"/>
					</g>
				</g>
			</g>
			<g id="&lt;Group&gt;">
				<g id="&lt;Group&gt;">
					<g id="&lt;Group&gt;">
						<path id="&lt;Path&gt;" class="s1" d="m367.3 409.1h-183.5v-265.9h183.5z"/>
					</g>
				</g>
			</g>
			<g id="&lt;Group&gt;">
				<g id="&lt;Group&gt;">
					<g id="&lt;Group&gt;">
						<g id="&lt;Group&gt;">
							<path id="&lt;Path&gt;" class="s2" d="m344.5 380.3h-137.9v-208.3h137.9z"/>
						</g>
					</g>
				</g>
				<g id="&lt;Group&gt;">
					<g id="&lt;Group&gt;">
						<g id="&lt;Group&gt;">
							<g id="&lt;Group&gt;">
								<path id="&lt;Path&gt;" class="s0" d="m344.5 380.3q0 0 0-1 0-1-0.1-2.9c0-2.7 0-6.5 0-11.5 0-10-0.1-24.5-0.1-42.9-0.1-36.7-0.2-88.8-0.3-150l0.5 0.4c-42.1 0.1-88.8 0.1-137.9 0.1l0.5-0.5c0 78.6-0.1 151-0.1 208.3l-0.4-0.4c42 0.1 76.4 0.2 100.4 0.2 12 0.1 21.3 0.1 27.7 0.1q4.8 0.1 7.3 0.1c1.6 0 2.5 0 2.5 0q0 0-2.4 0.1-2.5 0-7.2 0c-6.4 0-15.7 0.1-27.7 0.1-24 0.1-58.5 0.1-100.6 0.2h-0.4v-0.4c0-57.3-0.1-129.7-0.1-208.3v-0.5h0.5c49.1 0 95.8 0 137.9 0h0.5v0.5c-0.1 61.4-0.2 113.5-0.3 150.3 0 18.4-0.1 32.9-0.1 42.8 0 5 0 8.8 0 11.4q-0.1 1.9-0.1 2.9 0 0.9 0 0.9z"/>
							</g>
						</g>
					</g>
				</g>
			</g>
			<g id="&lt;Group&gt;">
				<g id="&lt;Group&gt;">
					<g id="&lt;Group&gt;">
						<g id="&lt;Group&gt;">
							<path id="&lt;Path&gt;" class="s3" d=""/>
						</g>
					</g>
				</g>
			</g>
			<g id="&lt;Group&gt;">
				<g id="&lt;Group&gt;">
					<g id="&lt;Group&gt;">
						<g id="&lt;Group&gt;">
							<path id="&lt;Path&gt;" class="s0" d="m367.8 143.2c0.1 0.1-1.1 1.9-3.3 4.7-2.1 2.9-5.1 6.8-8.6 11-3.4 4.1-6.6 7.9-9 10.5-2.4 2.6-4 4.2-4.1 4.1-0.1-0.1 1.3-1.8 3.5-4.6 2.5-2.9 5.5-6.6 8.9-10.7 3.3-4 6.3-7.7 8.8-10.7 2.3-2.7 3.7-4.4 3.8-4.3z"/>
						</g>
					</g>
				</g>
			</g>
			<g id="&lt;Group&gt;">
				<g id="&lt;Group&gt;">
					<g id="&lt;Group&gt;">
						<g id="&lt;Group&gt;">
							<path id="&lt;Path&gt;" class="s2" d="m345.2 379.7c6.9 10.9 14.9 21 24.1 30"/>
						</g>
					</g>
				</g>
				<g id="&lt;Group&gt;">
					<g id="&lt;Group&gt;">
						<g id="&lt;Group&gt;">
							<g id="&lt;Group&gt;">
								<path id="&lt;Path&gt;" class="s0" d="m369.3 409.7c-0.1 0.1-1.8-1.3-4.2-3.8-2.5-2.5-5.8-6-9.1-10.2-3.3-4.2-6.1-8.2-8-11.1-1.9-3-2.9-4.9-2.8-4.9 0.1-0.1 1.4 1.7 3.4 4.5 2 2.8 4.9 6.7 8.2 10.9 3.3 4.1 6.5 7.7 8.8 10.3 2.3 2.6 3.8 4.2 3.7 4.3z"/>
							</g>
						</g>
					</g>
				</g>
			</g>
			<g id="&lt;Group&gt;">
				<g id="&lt;Group&gt;">
					<g id="&lt;Group&gt;">
						<g id="&lt;Group&gt;">
							<path id="&lt;Path&gt;" class="s2" d="m183.8 408.9q12-14.8 24-29.6"/>
						</g>
					</g>
				</g>
				<g id="&lt;Group&gt;">
					<g id="&lt;Group&gt;">
						<g id="&lt;Group&gt;">
							<g id="&lt;Group&gt;">
								<path id="&lt;Path&gt;" class="s0" d="m207.8 379.3c0.2 0.1-5 6.9-11.6 15.1-6.6 8.2-12.2 14.7-12.4 14.5-0.2-0.1 5-6.9 11.6-15.1 6.6-8.2 12.2-14.7 12.4-14.5z"/>
							</g>
						</g>
					</g>
				</g>
			</g>
			<g id="&lt;Group&gt;">
				<g id="&lt;Group&gt;">
					<g id="&lt;Group&gt;">
						<g id="&lt;Group&gt;">
							<path id="&lt;Path&gt;" class="s0" d="m183.8 143.2c0.2-0.2 5.4 6.1 11.7 13.9 6.2 7.9 11.1 14.4 10.9 14.6-0.3 0.2-5.5-6.1-11.7-14-6.2-7.8-11.1-14.3-10.9-14.5z"/>
						</g>
					</g>
				</g>
			</g>
			<g id="&lt;Group&gt;">
				<g id="&lt;Group&gt;">
					<g id="&lt;Group&gt;">
						<path id="&lt;Path&gt;" class="s0" d="m301.5 345.4h-46.1v-131.1h46.1z"/>
					</g>
				</g>
			</g>
		</g>
		<g id="&lt;Group&gt;">
			<g id="&lt;Group&gt;">
				<g id="&lt;Group&gt;">
					<g id="&lt;Group&gt;">
						<path id="&lt;Path&gt;" class="s0" d="m623.9 104.4v116.5h-167.3l-6-115.7z"/>
					</g>
				</g>
			</g>
			<g id="&lt;Group&gt;">
				<g id="&lt;Group&gt;">
					<g id="&lt;Group&gt;">
						<path id="&lt;Path&gt;" class="s2" d="m617.8 105.2v115.4h-167.2v-115.4z"/>
					</g>
				</g>
				<g id="&lt;Group&gt;">
					<g id="&lt;Group&gt;">
						<path id="&lt;Compound Path&gt;" fill-rule="evenodd" class="s0" d="m618.6 221.4h-168.8v-117h168.8zm-167.2-1.5h165.6v-113.9h-165.6z"/>
					</g>
				</g>
			</g>
			<g id="&lt;Group&gt;">
				<g id="&lt;Group&gt;">
					<g id="&lt;Group&gt;">
						<g id="&lt;Group&gt;">
							<path id="&lt;Path&gt;" class="s2" d="m599.7 119.6v86.7h-131v-86.7z"/>
						</g>
					</g>
				</g>
				<g id="&lt;Group&gt;">
					<g id="&lt;Group&gt;">
						<g id="&lt;Group&gt;">
							<g id="&lt;Group&gt;">
								<path id="&lt;Path&gt;" class="s0" d="m599.7 119.6q0 0-0.6 0-0.7 0-1.9 0-2.5 0-7.2 0.1c-6.3 0-15.4 0-27 0.1-23.1 0-55.8 0.1-94.3 0.2l0.4-0.4c0 26.5 0 55.8 0 86.7l-0.4-0.4c49.4 0 95 0.1 131 0.1l-0.3 0.3c0.1-26.4 0.1-48 0.2-63.1 0-7.5 0-13.4 0-17.4q0.1-3 0.1-4.6c0-1.1 0-1.6 0-1.6q0 0 0.1 1.5 0 1.6 0 4.5c0 4 0 9.9 0.1 17.4 0 15.1 0.1 36.8 0.1 63.3v0.3h-0.3c-36 0.1-81.6 0.1-131 0.1h-0.4v-0.4c0-30.9 0-60.2 0-86.7v-0.4h0.4c38.6 0.1 71.4 0.1 94.6 0.2 11.5 0 20.6 0.1 26.9 0.1q4.6 0 7.1 0 1.2 0.1 1.8 0.1 0.6 0 0.6 0z"/>
							</g>
						</g>
					</g>
				</g>
			</g>
			<g id="&lt;Group&gt;">
				<g id="&lt;Group&gt;">
					<g id="&lt;Group&gt;">
						<g id="&lt;Group&gt;">
							<path id="&lt;Path&gt;" class="s0" d="m450.6 104.9c0-0.1 1.1 0.6 2.8 1.9 1.7 1.2 4.1 3 6.6 5 2.5 2 4.7 3.9 6.3 5.3 1.5 1.5 2.4 2.4 2.4 2.5-0.2 0.2-4.2-3.2-9.2-7.2-5.1-4-9.1-7.3-8.9-7.5z"/>
						</g>
					</g>
				</g>
			</g>
			<g id="&lt;Group&gt;">
				<g id="&lt;Group&gt;">
					<g id="&lt;Group&gt;">
						<g id="&lt;Group&gt;">
							<path id="&lt;Path&gt;" class="s0" d="m617.8 105.2c0.2 0.2-3.8 3.6-8.8 7.5-5 4-9.1 7.1-9.3 6.9-0.1-0.2 3.8-3.6 8.8-7.5 5-4 9.2-7 9.3-6.9z"/>
						</g>
					</g>
				</g>
			</g>
			<g id="&lt;Group&gt;">
				<g id="&lt;Group&gt;">
					<g id="&lt;Group&gt;">
						<g id="&lt;Group&gt;">
							<path id="&lt;Path&gt;" class="s2" d="m617.7 220.7q-9.3-7.6-18.7-15.2"/>
						</g>
					</g>
				</g>
				<g id="&lt;Group&gt;">
					<g id="&lt;Group&gt;">
						<g id="&lt;Group&gt;">
							<g id="&lt;Group&gt;">
								<path id="&lt;Path&gt;" class="s0" d="m599 205.5c0.2-0.1 4.5 3.1 9.6 7.3 5.2 4.2 9.2 7.7 9.1 7.9-0.1 0.1-4.4-3.1-9.6-7.3-5.1-4.1-9.2-7.7-9.1-7.9z"/>
							</g>
						</g>
					</g>
				</g>
			</g>
			<g id="&lt;Group&gt;">
				<g id="&lt;Group&gt;">
					<g id="&lt;Group&gt;">
						<g id="&lt;Group&gt;">
							<path id="&lt;Path&gt;" class="s0" d="m450.6 220.6c-0.2-0.1 3.7-3.5 8.7-7.4 4.9-3.9 9-6.9 9.2-6.7 0.1 0.1-3.8 3.5-8.7 7.4-5 3.9-9.1 6.9-9.2 6.7z"/>
						</g>
					</g>
				</g>
			</g>
			<g id="&lt;Group&gt;">
				<g id="&lt;Group&gt;">
					<g id="&lt;Group&gt;">
						<path id="&lt;Path&gt;" class="s0" d="m577.7 146.6v29h-82.4v-29z"/>
					</g>
				</g>
			</g>
		</g>
		<g id="&lt;Group&gt;">
			<g id="&lt;Group&gt;">
				<g id="&lt;Group&gt;">
					<path id="&lt;Path&gt;" class="s4" d="m1305.4 626.3c0 0-15-7-26.8 28.2-11.8 35.2-15.3 55.1-15.3 55.1 0 0-3.4 7.5-8.8 3.7-5.3-3.8-13.7-15.5-21.3-12-8 3.6-9.3 13.2-5.7 26.6 3.6 13.4 10.5 43 11.1 45.7 0.6 2.6-0.4 6.7-4.4 4.8-4.1-2-28.9-22.5-38-10.2-9 12.4 7.2 48 8.9 51.9 1.7 3.9 1.2 5.8-0.6 7.1-1.8 1.3-9.5-6.4-16.8-11.9-7.3-5.6-16.7-10.7-21.3-3.1-4.6 7.5-2.2 35.7 31.1 77.1l16.7 18.1 24.3-5c51.2-13.9 69.7-35.3 70.4-44.2 0.7-8.8-9.9-10.2-19.1-9.9-9.2 0.2-19.9 1.9-20.6-0.3-0.7-2.1 0-3.9 3.7-6.1 3.7-2.1 37.7-21.5 37.6-36.8 0-15.2-32.1-13.2-36.6-14-4.5-0.8-2.8-4.7-0.8-6.5 2.1-1.8 25-21.7 35.8-30.4 10.8-8.7 15.4-17.3 11.1-24.9-4.2-7.3-17.8-2.7-24.4-2.8-6.6-0.1-4.9-8.2-4.9-8.2 0 0 8.8-18.1 19.9-53.5 11.2-35.4-5.5-38.6-5.5-38.6"/>
				</g>
			</g>
			<g id="&lt;Group&gt;">
				<g id="&lt;Group&gt;">
					<g id="&lt;Group&gt;">
						<path id="&lt;Path&gt;" class="s0" d="m1211 912.4c8.2-26 23.7-71.9 36.8-111.4 13.1-39.5 24.9-75.3 33.4-101.2 4.1-12.9 7.5-23.4 9.9-30.7 1.2-3.6 2.1-6.4 2.7-8.4q0.5-1.4 0.7-2.1 0.3-0.8 0.3-0.8 0 0.1-0.2 0.8-0.2 0.8-0.7 2.2c-0.6 1.9-1.4 4.8-2.5 8.4-2.3 7.3-5.6 17.8-9.7 30.8-8.3 26-20.1 61.7-33.1 101.2-13.1 39.5-28.7 85.4-37.1 111.3"/>
					</g>
				</g>
			</g>
			<g id="&lt;Group&gt;">
				<g id="&lt;Group&gt;">
					<g id="&lt;Group&gt;">
						<path id="&lt;Path&gt;" class="s0" d="m1244.2 718.2c0-0.1 0.3 0.5 0.8 1.5 0.6 1 1.3 2.6 2.1 4.4 1.7 3.8 3.9 9 6.2 14.8 2.3 5.7 4.3 10.9 5.9 14.8q1.1 2.7 1.8 4.5c0.5 1.1 0.7 1.7 0.6 1.7 0 0-0.3-0.5-0.8-1.5-0.6-1.1-1.3-2.6-2.1-4.4-1.6-3.8-3.8-9-6.1-14.8-2.3-5.8-4.4-10.9-6-14.9q-1.1-2.6-1.8-4.5c-0.5-1-0.7-1.6-0.6-1.6z"/>
					</g>
				</g>
			</g>
			<g id="&lt;Group&gt;">
				<g id="&lt;Group&gt;">
					<g id="&lt;Group&gt;">
						<path id="&lt;Path&gt;" class="s0" d="m1263.9 760c-0.1-0.2 10.5-5.2 23.6-11.2 13.1-6 23.8-10.7 23.9-10.5 0.1 0.2-10.5 5.2-23.6 11.2-13.1 6-23.8 10.7-23.9 10.5z"/>
					</g>
				</g>
			</g>
			<g id="&lt;Group&gt;">
				<g id="&lt;Group&gt;">
					<g id="&lt;Group&gt;">
						<path id="&lt;Path&gt;" class="s0" d="m1241.1 819.8c0-0.1 0.6-0.2 1.8-0.4q1.9-0.3 4.9-0.7c4.1-0.6 9.8-1.5 16.1-2.7 6.2-1.1 11.9-2.4 15.9-3.4q2.9-0.6 4.9-1.1c1.1-0.2 1.7-0.3 1.8-0.3 0 0.1-0.6 0.3-1.8 0.6-1.1 0.4-2.7 0.8-4.7 1.4-4.1 1.1-9.7 2.4-16 3.6-6.3 1.2-12 2-16.2 2.4-2 0.3-3.7 0.4-4.9 0.5-1.2 0.1-1.8 0.1-1.8 0.1z"/>
					</g>
				</g>
			</g>
			<g id="&lt;Group&gt;">
				<g id="&lt;Group&gt;">
					<g id="&lt;Group&gt;">
						<path id="&lt;Path&gt;" class="s0" d="m1214.9 785.8c0 0 0.4 0.4 1.1 1.2q1.2 1.5 3 3.6c2.4 2.9 5.8 7.1 9.4 11.7 3.7 4.6 7 8.8 9.3 11.9q1.7 2.2 2.8 3.7c0.6 0.9 1 1.4 0.9 1.4 0 0-0.4-0.4-1.1-1.2q-1.2-1.5-3-3.5c-2.4-3-5.8-7.2-9.5-11.8-3.6-4.6-6.9-8.8-9.2-11.9q-1.7-2.2-2.8-3.7c-0.6-0.8-1-1.3-0.9-1.4z"/>
					</g>
				</g>
			</g>
			<g id="&lt;Group&gt;">
				<g id="&lt;Group&gt;">
					<g id="&lt;Group&gt;">
						<path id="&lt;Path&gt;" class="s0" d="m1188 836c0.1 0 0.6 0.5 1.5 1.6q1.5 1.7 3.8 4.5c3.1 3.8 7.5 9.1 12.2 14.9 4.8 5.9 9 11.3 12.1 15.2q2.2 2.8 3.6 4.6c0.8 1.1 1.3 1.7 1.2 1.8 0 0-0.5-0.6-1.4-1.6q-1.5-1.8-3.8-4.5c-3.2-3.8-7.5-9.1-12.3-15-4.7-5.9-9-11.2-12.1-15.1q-2.1-2.8-3.5-4.6c-0.9-1.1-1.3-1.8-1.3-1.8z"/>
					</g>
				</g>
			</g>
			<g id="&lt;Group&gt;">
				<g id="&lt;Group&gt;">
					<g id="&lt;Group&gt;">
						<path id="&lt;Path&gt;" class="s0" d="m1221.9 877.3c0 0 0.8-0.2 2.2-0.5q2.5-0.4 6.2-1.1c5.2-1 12.4-2.3 20.3-4.1 7.9-1.7 15.1-3.4 20.2-4.7q3.7-0.9 6.1-1.5c1.4-0.4 2.2-0.5 2.3-0.5 0 0.1-0.8 0.3-2.2 0.8-1.4 0.4-3.5 1-6.1 1.7-5.1 1.5-12.2 3.3-20.1 5-7.9 1.7-15.1 3-20.4 3.8-2.6 0.4-4.7 0.7-6.2 0.9-1.5 0.2-2.3 0.3-2.3 0.2z"/>
					</g>
				</g>
			</g>
		</g>
	</g>
	<g id="Floor">
		<g id="&lt;Group&gt;">
			<g id="&lt;Group&gt;">
				<path id="&lt;Path&gt;" class="s5" d="m1350.1 911.7c0 0.2-274.8 0.5-613.7 0.5-339 0-613.7-0.3-613.7-0.5 0-0.3 274.7-0.6 613.7-0.6 338.9 0 613.7 0.3 613.7 0.6z"/>
			</g>
		</g>
	</g>
	<g id="Stopwatch">
		<g id="&lt;Group&gt;">
			<g id="&lt;Group&gt;">
				<g id="&lt;Group&gt;">
					<g id="&lt;Group&gt;">
						<path id="&lt;Path&gt;" class="s5" d="m998.8 242.9l-19 16.3-25.4-29.6 19-16.4z"/>
					</g>
					<g id="&lt;Group&gt;">
						<path id="&lt;Path&gt;" class="s6" d="m991.2 213.3l-39.2 33.7-27.4-32c10.8-15.1 23.7-26.6 39.1-33.6z"/>
					</g>
				</g>
				<g id="&lt;Group&gt;">
					<g id="&lt;Group&gt;">
						<path id="&lt;Path&gt;" class="s5" d="m958.6 241.3c-0.2 0.2-6.8-7-14.8-16.2-8-9.1-14.2-16.7-14-16.9 0.2-0.2 6.8 7.1 14.8 16.2 7.9 9.2 14.2 16.8 14 16.9z"/>
					</g>
				</g>
				<g id="&lt;Group&gt;">
					<g id="&lt;Group&gt;">
						<path id="&lt;Path&gt;" class="s5" d="m966 234.9c-0.1 0.1-1.7-1.7-4.4-4.8-2.6-3.1-6.2-7.4-10.2-12.2-3.8-4.7-7.2-9-10-12.4q-1.7-2.1-3-3.7c-0.7-0.9-1.1-1.3-1.1-1.4 0.4-0.4 7.1 7.2 14.9 16.8 4 4.8 7.5 9.2 10 12.4 2.5 3.2 4 5.2 3.8 5.3z"/>
					</g>
				</g>
				<g id="&lt;Group&gt;">
					<g id="&lt;Group&gt;">
						<path id="&lt;Path&gt;" class="s5" d="m976 226.4c-0.1 0.1-1.8-1.8-4.5-4.9-2.7-3.2-6.3-7.6-10.2-12.4-3.8-4.8-7.3-9.1-10.1-12.5q-1.7-2.2-3-3.9c-0.7-0.9-1-1.3-1-1.4 0.1-0.2 1.9 1.7 4.6 4.8 2.7 3.1 6.3 7.5 10.3 12.3 3.9 4.9 7.5 9.3 10 12.6 2.5 3.2 4 5.3 3.9 5.4z"/>
					</g>
				</g>
				<g id="&lt;Group&gt;">
					<g id="&lt;Group&gt;">
						<path id="&lt;Path&gt;" class="s5" d="m985 218.4c-0.2 0.2-6.8-7.2-14.7-16.4-7.9-9.3-14.1-16.9-13.9-17.1 0.3-0.2 6.8 7.2 14.7 16.4 7.9 9.3 14.1 16.9 13.9 17.1z"/>
					</g>
				</g>
			</g>
			<g id="&lt;Group&gt;">
				<g id="&lt;Group&gt;">
					<g id="&lt;Group&gt;">
						<path id="&lt;Path&gt;" class="s5" d="m1281.6 262.9l-17.3-18.1 28.2-27 17.3 18.1z"/>
					</g>
					<g id="&lt;Group&gt;">
						<path id="&lt;Path&gt;" class="s6" d="m1310.7 253.7l-35.7-37.3 30.5-29.1c15.7 10 27.8 22.2 35.6 37.3z"/>
					</g>
				</g>
				<g id="&lt;Group&gt;">
					<g id="&lt;Group&gt;">
						<path id="&lt;Path&gt;" class="s5" d="m1281 222.6c-0.2-0.2 6.7-7.2 15.4-15.6 8.7-8.4 15.9-15.1 16.1-14.9 0.2 0.2-6.7 7.2-15.4 15.7-8.7 8.4-15.9 15-16.1 14.8z"/>
					</g>
				</g>
				<g id="&lt;Group&gt;">
					<g id="&lt;Group&gt;">
						<path id="&lt;Path&gt;" class="s5" d="m1287.8 229.7c-0.1-0.1 1.7-1.8 4.6-4.6 3-2.8 7.1-6.7 11.7-10.9 4.4-4 8.5-7.7 11.7-10.6q2.1-1.8 3.6-3.2c0.9-0.8 1.3-1.2 1.4-1.2 0.3 0.4-6.9 7.5-16 15.8-4.6 4.2-8.8 7.9-11.9 10.6-3.1 2.7-5 4.2-5.1 4.1z"/>
					</g>
				</g>
				<g id="&lt;Group&gt;">
					<g id="&lt;Group&gt;">
						<path id="&lt;Path&gt;" class="s5" d="m1296.8 239.2c-0.1-0.1 1.7-1.9 4.7-4.7 3-2.8 7.2-6.7 11.8-10.9 4.6-4 8.7-7.7 12-10.7q2.1-1.8 3.7-3.2c0.9-0.7 1.3-1 1.4-1.1 0.2 0.1-1.6 2-4.6 4.9-2.9 2.8-7.1 6.7-11.8 10.9-4.6 4.2-8.9 8-12 10.6-3.1 2.7-5.1 4.3-5.2 4.2z"/>
					</g>
				</g>
				<g id="&lt;Group&gt;">
					<g id="&lt;Group&gt;">
						<path id="&lt;Path&gt;" class="s5" d="m1305.3 247.8c-0.2-0.2 6.8-7.1 15.6-15.5 8.8-8.4 16.1-15 16.3-14.8 0.2 0.2-6.8 7.2-15.6 15.5-8.8 8.4-16.1 15-16.3 14.8z"/>
					</g>
				</g>
			</g>
			<g id="&lt;Group&gt;">
				<g id="&lt;Group&gt;">
					<g id="&lt;Group&gt;">
						<path id="&lt;Path&gt;" class="s5" d="m1150.2 195.7h-29.7v-46.3h29.7z"/>
					</g>
					<g id="&lt;Group&gt;">
						<path id="&lt;Path&gt;" class="s7" d="m1166.1 163.3h-61.1v-49.9c21.4-5.3 41.8-5.6 61.1 0z"/>
					</g>
				</g>
				<g id="&lt;Group&gt;">
					<g id="&lt;Group&gt;">
						<path id="&lt;Path&gt;" class="s5" d="m1166.8 113.6c0 0.1-0.8 0.5-2.3 1.1-1.4 0.7-3.6 1.5-6.4 2.4-2.8 0.9-6.1 1.7-9.9 2.4-3.8 0.6-8 1-12.4 1-4.5 0-8.7-0.4-12.5-0.9-3.8-0.6-7.1-1.4-9.9-2.3-2.8-0.8-5-1.6-6.4-2.3-1.5-0.6-2.3-1-2.3-1.1 0.1-0.2 3.4 1.2 8.9 2.7 2.8 0.8 6.1 1.5 9.9 2 3.7 0.5 7.9 0.9 12.3 0.9 4.3-0.1 8.5-0.5 12.2-1 3.8-0.6 7.1-1.3 9.9-2.1 5.5-1.5 8.8-3 8.9-2.8z"/>
					</g>
				</g>
				<g id="&lt;Group&gt;">
					<g id="&lt;Group&gt;">
						<path id="&lt;Path&gt;" class="s5" d="m1125.2 163.1c-0.3 0-0.6-9.5-0.6-21.3 0-11.9 0.3-21.4 0.6-21.4 0.3 0 0.5 9.5 0.5 21.4 0 11.8-0.2 21.3-0.5 21.3z"/>
					</g>
				</g>
				<g id="&lt;Group&gt;">
					<g id="&lt;Group&gt;">
						<path id="&lt;Path&gt;" class="s5" d="m1136.8 163.4c-0.3 0-0.5-9.6-0.5-21.5 0-11.8 0.2-21.4 0.5-21.4 0.3 0 0.5 9.6 0.5 21.4 0 11.9-0.2 21.5-0.5 21.5z"/>
					</g>
				</g>
				<g id="&lt;Group&gt;">
					<g id="&lt;Group&gt;">
						<path id="&lt;Path&gt;" class="s5" d="m1148.4 163.2c-0.3 0-0.5-9.6-0.5-21.4 0-11.9 0.2-21.5 0.5-21.5 0.3 0 0.5 9.6 0.5 21.5 0 11.8-0.2 21.4-0.5 21.4z"/>
					</g>
				</g>
				<g id="&lt;Group&gt;">
					<g id="&lt;Group&gt;">
						<path id="&lt;Path&gt;" class="s5" d="m1158.1 163.2c-0.3 0-0.5-10.4-0.5-23.2 0-12.8 0.2-23.2 0.5-23.2 0.3 0 0.5 10.4 0.5 23.2 0 12.8-0.2 23.2-0.5 23.2z"/>
					</g>
				</g>
				<g id="&lt;Group&gt;">
					<g id="&lt;Group&gt;">
						<path id="&lt;Path&gt;" class="s5" d="m1114.2 162.9c-0.3 0-0.5-10.4-0.5-23.2 0-12.8 0.2-23.2 0.5-23.2 0.3 0 0.5 10.4 0.5 23.2 0 12.8-0.2 23.2-0.5 23.2z"/>
					</g>
				</g>
			</g>
			<g id="&lt;Group&gt;">
				<path id="&lt;Path&gt;" class="s7" d="m1347.4 397.1c0 119.1-96.5 215.6-215.6 215.6-119.2 0-215.7-96.5-215.7-215.6 0-119.1 96.5-215.7 215.7-215.7 119.1 0 215.6 96.6 215.6 215.7z"/>
			</g>
			<g id="&lt;Group&gt;">
				<g id="&lt;Group&gt;">
					<path id="&lt;Path&gt;" class="s8" d="m1312.9 395.3c0 100.1-81.1 181.2-181.1 181.2-100.1 0-181.2-81.1-181.2-181.2 0-100 81.1-181.1 181.2-181.1 100 0 181.1 81.1 181.1 181.1z"/>
				</g>
				<g id="&lt;Group&gt;">
					<g id="&lt;Group&gt;">
						<path id="&lt;Path&gt;" class="s5" d="m1312.9 395.3c0 0-0.1-0.9-0.2-2.9-0.1-1.9 0-4.8-0.3-8.6-0.5-7.6-1.7-18.7-5.2-32.7-1.8-6.9-4.1-14.6-7.4-22.7-3.3-8.1-7.3-16.8-12.6-25.5-10.5-17.5-25.5-35.8-46-51.4-10.2-7.8-21.8-14.8-34.5-20.6-12.8-5.8-26.7-10.4-41.6-13.1-14.8-2.8-30.5-3.8-46.6-2.6-8 0.5-16.1 1.8-24.2 3.4-8.1 1.7-16.2 4.1-24.2 6.9-31.8 11.5-62.1 33.1-83.9 63-5.6 7.4-10.4 15.4-14.8 23.7-2.2 4.1-4.1 8.4-6 12.8-1.8 4.4-3.6 8.8-5 13.3-3 9.1-5.4 18.4-6.9 28-1.5 9.5-2.3 19.2-2.4 29 0.1 9.8 0.9 19.5 2.4 29.1 1.5 9.6 3.9 18.9 6.9 28 1.4 4.5 3.2 8.9 5 13.3 1.9 4.3 3.8 8.6 6 12.8 4.4 8.3 9.2 16.3 14.8 23.7 21.8 29.9 52.1 51.5 83.9 63 8 2.8 16.1 5.2 24.2 6.9 8.1 1.6 16.2 2.9 24.2 3.4 16.1 1.2 31.8 0.2 46.6-2.6 14.9-2.7 28.8-7.3 41.6-13.1 12.8-5.8 24.3-12.8 34.5-20.6 20.5-15.6 35.5-33.9 46-51.4 5.3-8.8 9.3-17.4 12.6-25.5 3.3-8.1 5.6-15.8 7.4-22.7 3.5-14 4.7-25.2 5.2-32.7 0.3-3.8 0.2-6.7 0.3-8.6 0.1-2 0.2-3 0.2-3 0 0 0 1 0 3-0.1 1.9 0 4.8-0.3 8.6-0.4 7.6-1.6 18.8-5 32.8-1.8 6.9-4 14.7-7.4 22.8-3.2 8.1-7.2 16.8-12.5 25.6-10.5 17.5-25.5 35.9-46 51.6-10.2 7.9-21.9 15-34.7 20.8-12.8 5.9-26.8 10.6-41.7 13.3-14.9 2.7-30.7 3.8-46.8 2.6-8.1-0.5-16.2-1.8-24.4-3.4-8.1-1.7-16.2-4-24.3-6.9-32-11.6-62.5-33.2-84.5-63.3-5.5-7.4-10.4-15.5-14.8-23.8-2.2-4.2-4.1-8.6-6.1-12.9-1.7-4.4-3.6-8.8-5-13.4-3-9.1-5.4-18.5-6.9-28.1-1.5-9.6-2.3-19.4-2.4-29.3 0.1-9.8 0.9-19.6 2.4-29.2 1.5-9.6 3.9-19 6.9-28.1 1.5-4.6 3.3-9 5-13.4 2-4.4 3.9-8.7 6.1-12.9 4.4-8.3 9.3-16.4 14.8-23.8 22-30.1 52.5-51.7 84.5-63.3 8.1-2.9 16.2-5.2 24.3-6.9 8.2-1.6 16.3-2.9 24.4-3.4 16.1-1.2 31.9-0.1 46.8 2.6 14.9 2.7 28.9 7.4 41.7 13.3 12.8 5.8 24.4 12.9 34.7 20.7 20.5 15.8 35.5 34.1 46 51.7 5.3 8.8 9.3 17.5 12.5 25.6 3.4 8.1 5.6 15.9 7.4 22.8 3.4 14 4.6 25.2 5 32.8 0.3 3.8 0.2 6.7 0.3 8.6 0 2 0 2.9 0 2.9z"/>
					</g>
				</g>
			</g>
			<g id="&lt;Group&gt;">
				<g id="&lt;Group&gt;">
					<path id="&lt;Path&gt;" class="s9" d=""/>
				</g>
			</g>
			<g id="&lt;Group&gt;">
				<g id="&lt;Group&gt;">
					<g id="&lt;Group&gt;">
						<path id="&lt;Path&gt;" class="s5" d="m1286.3 388.8c-5.7 0.2-10.4 0-10.4-0.5-0.1-0.5 4.6-1.2 10.3-1.5 5.7-0.3 10.4-0.1 10.5 0.5 0 0.6-4.6 1.2-10.4 1.5z"/>
					</g>
				</g>
				<g id="&lt;Group&gt;">
					<g id="&lt;Group&gt;">
						<path id="&lt;Path&gt;" class="s5" d="m1282.4 430.5c-5.6-1.3-10-2.8-9.9-3.3 0.1-0.5 4.8 0.1 10.4 1.3 5.6 1.2 10.1 2.7 9.9 3.3-0.1 0.6-4.8 0-10.4-1.3z"/>
					</g>
				</g>
				<g id="&lt;Group&gt;">
					<g id="&lt;Group&gt;">
						<path id="&lt;Path&gt;" class="s5" d="m1267.5 469.6c-5.1-2.8-8.9-5.4-8.7-5.8 0.2-0.5 4.6 1.3 9.6 4 5.1 2.7 9 5.3 8.7 5.9-0.3 0.5-4.6-1.3-9.6-4.1z"/>
					</g>
				</g>
				<g id="&lt;Group&gt;">
					<g id="&lt;Group&gt;">
						<path id="&lt;Path&gt;" class="s5" d="m1242.6 503.3c-4.1-4.1-7.2-7.6-6.8-8 0.3-0.3 4 2.6 8.2 6.5 4.2 4 7.2 7.5 6.8 8-0.4 0.4-4.1-2.5-8.2-6.5z"/>
					</g>
				</g>
				<g id="&lt;Group&gt;">
					<g id="&lt;Group&gt;">
						<path id="&lt;Path&gt;" class="s5" d="m1209.6 529.1c-2.9-5-4.9-9.3-4.4-9.5 0.4-0.3 3.2 3.5 6.1 8.4 3 5 5 9.2 4.5 9.5-0.5 0.3-3.3-3.5-6.2-8.4z"/>
					</g>
				</g>
				<g id="&lt;Group&gt;">
					<g id="&lt;Group&gt;">
						<path id="&lt;Path&gt;" class="s5" d="m1170.9 545c-1.4-5.5-2.2-10.2-1.7-10.3 0.5-0.1 2.1 4.3 3.6 9.8 1.6 5.6 2.3 10.2 1.8 10.3-0.6 0.2-2.3-4.2-3.7-9.8z"/>
					</g>
				</g>
				<g id="&lt;Group&gt;">
					<g id="&lt;Group&gt;">
						<path id="&lt;Path&gt;" class="s5" d="m1129.3 550c0.1-5.7 0.6-10.4 1.1-10.4 0.5 0 0.9 4.7 0.9 10.4 0 5.8-0.5 10.5-1.1 10.5-0.6-0.1-1-4.7-0.9-10.5z"/>
					</g>
				</g>
				<g id="&lt;Group&gt;">
					<g id="&lt;Group&gt;">
						<path id="&lt;Path&gt;" class="s5" d="m1087.9 543.7c1.6-5.5 3.4-9.8 3.9-9.7 0.4 0.2-0.4 4.8-2 10.3-1.5 5.5-3.2 9.9-3.8 9.7-0.6-0.1 0.3-4.7 1.9-10.3z"/>
					</g>
				</g>
				<g id="&lt;Group&gt;">
					<g id="&lt;Group&gt;">
						<path id="&lt;Path&gt;" class="s5" d="m1049.7 526.5c3.1-4.8 5.9-8.6 6.4-8.3 0.4 0.3-1.7 4.5-4.7 9.4-2.9 4.9-5.8 8.6-6.3 8.3-0.5-0.3 1.6-4.5 4.6-9.4z"/>
					</g>
				</g>
				<g id="&lt;Group&gt;">
					<g id="&lt;Group&gt;">
						<path id="&lt;Path&gt;" class="s5" d="m1017.6 499.7c4.2-3.9 7.9-6.7 8.3-6.3 0.3 0.3-2.8 3.8-7 7.8-4.2 3.9-7.9 6.8-8.3 6.3-0.4-0.4 2.7-3.9 7-7.8z"/>
					</g>
				</g>
				<g id="&lt;Group&gt;">
					<g id="&lt;Group&gt;">
						<path id="&lt;Path&gt;" class="s5" d="m993.7 465.3c5.2-2.6 9.5-4.3 9.7-3.9 0.3 0.5-3.7 3-8.8 5.7-5 2.6-9.4 4.4-9.7 3.8-0.2-0.5 3.7-3 8.8-5.6z"/>
					</g>
				</g>
				<g id="&lt;Group&gt;">
					<g id="&lt;Group&gt;">
						<path id="&lt;Path&gt;" class="s5" d="m980 425.7c5.7-1.1 10.4-1.6 10.5-1.1 0.1 0.5-4.4 1.9-10 3.1-5.7 1.2-10.3 1.7-10.5 1.1-0.1-0.6 4.4-2 10-3.1z"/>
					</g>
				</g>
				<g id="&lt;Group&gt;">
					<g id="&lt;Group&gt;">
						<path id="&lt;Path&gt;" class="s5" d="m977.5 383.9c5.7 0.4 10.3 1.2 10.3 1.7 0 0.5-4.7 0.6-10.5 0.3-5.7-0.3-10.3-1.1-10.3-1.7 0-0.6 4.7-0.7 10.5-0.3z"/>
					</g>
				</g>
				<g id="&lt;Group&gt;">
					<g id="&lt;Group&gt;">
						<path id="&lt;Path&gt;" class="s5" d="m986.2 342.9c5.4 2 9.6 4 9.5 4.5-0.2 0.4-4.8-0.7-10.2-2.6-5.4-1.8-9.7-3.8-9.5-4.4 0.2-0.5 4.8 0.6 10.2 2.5z"/>
					</g>
				</g>
				<g id="&lt;Group&gt;">
					<g id="&lt;Group&gt;">
						<path id="&lt;Path&gt;" class="s5" d="m1005.6 305.8c4.7 3.4 8.2 6.4 7.9 6.8-0.3 0.5-4.3-1.9-9.1-5.1-4.7-3.3-8.3-6.3-7.9-6.8 0.3-0.5 4.4 1.8 9.1 5.1z"/>
					</g>
				</g>
				<g id="&lt;Group&gt;">
					<g id="&lt;Group&gt;">
						<path id="&lt;Path&gt;" class="s5" d="m1034.2 275.3c3.6 4.4 6.2 8.3 5.9 8.7-0.4 0.3-3.8-3-7.4-7.5-3.7-4.4-6.4-8.2-5.9-8.6 0.5-0.4 3.8 2.9 7.4 7.4z"/>
					</g>
				</g>
				<g id="&lt;Group&gt;">
					<g id="&lt;Group&gt;">
						<path id="&lt;Path&gt;" class="s5" d="m1070 253.5c2.2 5.3 3.7 9.7 3.3 9.9-0.5 0.2-2.8-3.9-5.2-9.1-2.3-5.2-3.8-9.7-3.3-9.9 0.6-0.3 2.9 3.8 5.2 9.1z"/>
					</g>
				</g>
				<g id="&lt;Group&gt;">
					<g id="&lt;Group&gt;">
						<path id="&lt;Path&gt;" class="s5" d="m1110.3 242.1c0.8 5.7 1 10.4 0.5 10.5-0.5 0.1-1.6-4.5-2.5-10.2-0.9-5.7-1.1-10.3-0.5-10.4 0.6-0.1 1.7 4.4 2.5 10.1z"/>
					</g>
				</g>
				<g id="&lt;Group&gt;">
					<g id="&lt;Group&gt;">
						<path id="&lt;Path&gt;" class="s5" d="m1152.2 242c-0.8 5.7-1.8 10.3-2.3 10.2-0.5-0.1-0.4-4.8 0.3-10.5 0.6-5.7 1.7-10.3 2.3-10.2 0.6 0.1 0.4 4.8-0.3 10.5z"/>
					</g>
				</g>
				<g id="&lt;Group&gt;">
					<g id="&lt;Group&gt;">
						<path id="&lt;Path&gt;" class="s5" d="m1192.5 253.1c-2.2 5.3-4.4 9.4-4.9 9.2-0.5-0.2 0.9-4.7 3.1-10 2.2-5.3 4.4-9.5 5-9.2 0.5 0.2-0.9 4.7-3.2 10z"/>
					</g>
				</g>
				<g id="&lt;Group&gt;">
					<g id="&lt;Group&gt;">
						<path id="&lt;Path&gt;" class="s5" d="m1228.5 274.6c-3.6 4.5-6.9 7.9-7.3 7.6-0.4-0.4 2.2-4.3 5.7-8.8 3.5-4.6 6.8-7.9 7.2-7.6 0.5 0.4-2 4.3-5.6 8.8z"/>
					</g>
				</g>
				<g id="&lt;Group&gt;">
					<g id="&lt;Group&gt;">
						<path id="&lt;Path&gt;" class="s5" d="m1257.3 305c-4.7 3.3-8.7 5.7-9 5.3-0.3-0.4 3.2-3.5 7.8-7 4.6-3.4 8.7-5.8 9-5.3 0.4 0.5-3.1 3.6-7.8 7z"/>
					</g>
				</g>
				<g id="&lt;Group&gt;">
					<g id="&lt;Group&gt;">
						<path id="&lt;Path&gt;" class="s5" d="m1277 341.9c-5.4 2-10 3.2-10.1 2.8-0.2-0.5 4-2.6 9.4-4.6 5.3-2.1 9.9-3.3 10.1-2.8 0.2 0.6-4 2.7-9.4 4.6z"/>
					</g>
				</g>
				<g id="&lt;Group&gt;">
					<g id="&lt;Group&gt;">
						<path id="&lt;Path&gt;" class="s5" d="m1285.9 382.8c-5.7 0.5-10.4 0.5-10.4-0.1-0.1-0.5 4.5-1.3 10.3-1.9 5.7-0.5 10.4-0.5 10.4 0.1 0.1 0.6-4.5 1.5-10.3 1.9z"/>
					</g>
				</g>
			</g>
			<g id="&lt;Group&gt;">
				<g id="&lt;Group&gt;">
					<path id="&lt;Path&gt;" class="s2" d="m1061.4 199.4q0 0-0.6 0.3-0.7 0.3-1.8 0.7c-1.6 0.7-4.1 1.5-7.1 2.9-6.1 2.5-14.8 6.5-25.1 12.5-5.1 2.9-10.5 6.5-16.2 10.4-5.6 4.1-11.5 8.7-17.3 13.9-11.7 10.3-23.4 23.1-33.6 38-10.1 14.9-17.8 30.4-23.2 45-2.8 7.4-4.8 14.5-6.6 21.2-1.7 6.8-3 13.1-3.9 19-1.8 11.7-2.4 21.2-2.5 27.8-0.2 3.4-0.1 5.9-0.1 7.7q0 1.2 0 1.9 0 0.7-0.1 0.7 0 0 0-0.6-0.1-0.8-0.1-2c0-1.8-0.2-4.3-0.1-7.7 0-6.6 0.5-16.2 2.2-27.9 0.8-5.9 2.1-12.3 3.8-19.1 1.7-6.7 3.7-13.9 6.5-21.3 5.3-14.7 13-30.3 23.2-45.3 10.3-15 22-27.8 33.8-38.1 5.9-5.3 11.9-9.8 17.5-13.9 5.7-3.9 11.2-7.5 16.4-10.4 10.3-5.8 19.1-9.8 25.2-12.2 3.1-1.3 5.6-2.1 7.2-2.7q1.2-0.4 1.9-0.6 0.6-0.2 0.6-0.2z"/>
				</g>
			</g>
			<g id="&lt;Group&gt;">
				<g id="&lt;Group&gt;">
					<path id="&lt;Path&gt;" class="s2" d="m1121.6 187.7c0 0.2-2.4 0.4-6.2 0.8-3.9 0.4-9.2 1-15.1 1.8-5.9 0.7-11.2 1.5-15 2.1-3.9 0.6-6.2 1-6.3 0.8 0-0.1 2.3-0.7 6.2-1.5 3.8-0.8 9.1-1.7 15-2.4 5.9-0.8 11.2-1.3 15.1-1.5 3.9-0.2 6.3-0.2 6.3-0.1z"/>
				</g>
			</g>
			<g id="&lt;Group&gt;" style="opacity: .4">
				<path id="&lt;Path&gt;" class="s10" d="m987 504.2c0 0 93.9 148.1 239.5 72.3 151.9-79.2 68-260.8 68-260.8 0 0 71.5 144.7-76.7 239-36.9 23.5-77 23.6-107.7 20.5-78.3-7.9-123.1-71-123.1-71z"/>
			</g>
			<g id="&lt;Group&gt;">
				<path id="&lt;Path&gt;" class="s0" d="m1182.2 299.1c0.9 26.5 0.1 53.2-2.4 79.6-0.9 9.6-2 19.3-5.7 28.2-3.6 8.9-10 17-18.8 20.8-8.9 3.7-20.3 2.2-26.5-5.2z"/>
			</g>
			<g id="&lt;Group&gt;">
				<g id="&lt;Group&gt;">
					<g id="&lt;Group&gt;">
						<path id="&lt;Path&gt;" class="s7" d="m1127.8 381.1l65.8-110.9-39.7 125.1-20.3 6.1z"/>
					</g>
					<g id="&lt;Group&gt;" style="opacity: .4">
						<path id="&lt;Path&gt;" class="s10" d="m1193.6 270.2l-48.8 113.3 9.1 11.8z"/>
					</g>
				</g>
				<g id="&lt;Group&gt;">
					<g id="&lt;Group&gt;">
						<g id="&lt;Group&gt;">
							<path id="&lt;Path&gt;" class="s8" d="m1154.8 401.4c0 11.7-9.5 21.2-21.2 21.2-11.7 0-21.2-9.5-21.2-21.2 0-11.7 9.5-21.2 21.2-21.2 11.7 0 21.2 9.5 21.2 21.2z"/>
						</g>
						<g id="&lt;Group&gt;">
							<g id="&lt;Group&gt;">
								<path id="&lt;Path&gt;" class="s5" d="m1154.8 401.4c-0.1 0 0-1.9-0.9-5.1-0.8-3.2-2.9-7.8-7.7-11.4-2.4-1.8-5.3-3.3-8.8-3.9-3.4-0.5-7.2-0.4-10.8 1-1.9 0.6-3.6 1.6-5.3 2.8-1.6 1.2-3.1 2.7-4.3 4.4-2.6 3.4-4 7.7-4 12.2 0 4.5 1.4 8.9 4 12.2 1.2 1.8 2.7 3.2 4.3 4.4 1.7 1.3 3.4 2.2 5.3 2.9 3.6 1.4 7.4 1.5 10.8 0.9 3.5-0.6 6.4-2.1 8.8-3.8 4.8-3.6 6.9-8.3 7.7-11.5 0.9-3.2 0.8-5.1 0.9-5.1 0 0 0.3 1.9-0.5 5.2-0.7 3.3-2.8 8.2-7.6 12-2.5 1.8-5.5 3.4-9.1 4.1-3.5 0.6-7.5 0.5-11.4-0.9-1.9-0.7-3.8-1.7-5.5-3-1.7-1.2-3.3-2.8-4.6-4.6-2.6-3.5-4.2-8.1-4.2-12.8 0.1-4.7 1.6-9.3 4.2-12.8 1.3-1.8 2.9-3.3 4.6-4.6 1.8-1.3 3.6-2.3 5.5-2.9 3.9-1.5 7.9-1.5 11.4-0.9 3.6 0.6 6.6 2.2 9.1 4.1 4.8 3.8 6.9 8.6 7.6 11.9 0.8 3.3 0.5 5.2 0.5 5.2z"/>
							</g>
						</g>
					</g>
					<g id="&lt;Group&gt;">
						<g id="&lt;Group&gt;">
							<path id="&lt;Path&gt;" class="s6" d="m1149.4 401.4c0 8.7-7.1 15.8-15.8 15.8-8.7 0-15.8-7.1-15.8-15.8 0-8.7 7.1-15.7 15.8-15.7 8.7 0 15.8 7 15.8 15.7z"/>
						</g>
					</g>
				</g>
			</g>
		</g>
	</g>
	<g id="Calendar">
		<g id="&lt;Group&gt;">
			<g id="&lt;Group&gt;">
				<g id="&lt;Group&gt;">
					<path id="&lt;Path&gt;" class="s0" d="m966.6 909.8h104.2l-48.5-418.7z"/>
				</g>
				<g id="&lt;Group&gt;">
					<path id="&lt;Path&gt;" class="s8" d="m453.9 491.1l-67.8 423.6 578.9 7.6 57.3-431.2z"/>
				</g>
				<g id="&lt;Group&gt;">
					<path id="&lt;Path&gt;" class="s4" d="m996.5 685.2h-573.7l12.5-78h571.5z"/>
					<path id="&lt;Compound Path&gt;" fill-rule="evenodd" class="s5" d="m996.5 685.2h-573.7l12.5-78.1h571.6v0.1zm-573.6-0.1h573.5l10.4-78h-571.5z"/>
				</g>
				<g id="&lt;Group&gt;">
					<path id="&lt;Path&gt;" class="s7" d="m453.9 491.1l-18.6 116.1h571.5l15.5-116.1z"/>
				</g>
				<g id="&lt;Group&gt;">
					<g id="&lt;Group&gt;">
						<path id="&lt;Path&gt;" class="s5" d="m453.9 491.1c4.2 0 231.5-0.2 568.4-0.5h0.5l-0.1 0.6c-16.7 126.2-35.7 269.3-55.8 420.5l-0.1 0.5h-0.4c-2.1 0-4.3 0-6.5 0-213.8-0.1-411.9-0.1-573.3-0.1h-0.5v-0.5c41.1-254.6 67.3-417 67.8-420.5-0.5 3.5-26.4 165.9-66.9 420.6l-0.4-0.5c161.4 0 359.5-0.1 573.3-0.1 2.2 0 4.4 0 6.5 0l-0.5 0.5c20.1-151.2 39.1-294.3 55.9-420.6l0.5 0.6c-336.9-0.3-564.3-0.5-568.4-0.5z"/>
					</g>
				</g>
				<g id="&lt;Group&gt;">
					<g id="&lt;Group&gt;">
						<path id="&lt;Path&gt;" class="s5" d="m1006.8 607.2c0 0.2-127.9 0.5-285.7 0.5-157.9 0-285.8-0.3-285.8-0.5 0-0.3 127.9-0.6 285.8-0.6 157.8 0 285.7 0.3 285.7 0.6z"/>
					</g>
				</g>
				<g id="&lt;Group&gt;">
					<g id="&lt;Group&gt;">
						<path id="&lt;Path&gt;" class="s5" d="m996.5 685.2c0 0.3-128.7 0.5-287.4 0.5-158.7 0-287.4-0.2-287.4-0.5 0-0.3 128.7-0.6 287.4-0.6 158.7 0 287.4 0.3 287.4 0.6z"/>
					</g>
				</g>
				<g id="&lt;Group&gt;">
					<g id="&lt;Group&gt;">
						<path id="&lt;Path&gt;" class="s5" d="m984.8 756.9c0 0.3-128.7 0.6-287.3 0.6-158.8 0-287.4-0.3-287.4-0.6 0-0.2 128.6-0.5 287.4-0.5 158.6 0 287.3 0.3 287.3 0.5z"/>
					</g>
				</g>
				<g id="&lt;Group&gt;">
					<g id="&lt;Group&gt;">
						<path id="&lt;Path&gt;" class="s5" d="m973.1 828.7c0 0.3-128.6 0.5-287.3 0.5-158.8 0-287.4-0.2-287.4-0.5 0-0.3 128.6-0.5 287.4-0.5 158.7 0 287.3 0.2 287.3 0.5z"/>
					</g>
				</g>
				<g id="&lt;Group&gt;">
					<g id="&lt;Group&gt;">
						<path id="&lt;Path&gt;" class="s5" d="m467.3 912.3c-0.2-0.1 10.3-68.4 23.5-152.7 13.3-84.2 24.2-152.5 24.5-152.4 0.3 0-10.2 68.3-23.5 152.6-13.2 84.2-24.2 152.5-24.5 152.5z"/>
					</g>
				</g>
				<g id="&lt;Group&gt;">
					<g id="&lt;Group&gt;">
						<path id="&lt;Path&gt;" class="s5" d="m555.8 912.3c-0.3-0.1 10.2-68.4 23.5-152.7 13.2-84.2 24.2-152.5 24.5-152.4 0.2 0-10.3 68.3-23.5 152.6-13.3 84.2-24.2 152.5-24.5 152.5z"/>
					</g>
				</g>
				<g id="&lt;Group&gt;">
					<g id="&lt;Group&gt;">
						<path id="&lt;Path&gt;" class="s5" d="m638 909.2c-0.3 0 10.1-67.7 23.2-151.1 13.1-83.4 24-151 24.3-150.9 0.2 0-10.2 67.6-23.3 151.1-13.1 83.4-23.9 151-24.2 150.9z"/>
					</g>
				</g>
				<g id="&lt;Group&gt;">
					<g id="&lt;Group&gt;">
						<path id="&lt;Path&gt;" class="s5" d="m719.3 911.6c-0.3 0 10.2-68.2 23.4-152.3 13.2-84.1 24.2-152.2 24.5-152.1 0.2 0-10.2 68.2-23.5 152.3-13.2 84.1-24.1 152.2-24.4 152.1z"/>
					</g>
				</g>
				<g id="&lt;Group&gt;">
					<g id="&lt;Group&gt;">
						<path id="&lt;Path&gt;" class="s5" d="m801 911.6c-0.3 0 10.2-68.2 23.4-152.3 13.2-84.1 24.2-152.2 24.5-152.1 0.3 0-10.2 68.2-23.4 152.3-13.3 84.1-24.2 152.2-24.5 152.1z"/>
					</g>
				</g>
				<g id="&lt;Group&gt;">
					<g id="&lt;Group&gt;">
						<path id="&lt;Path&gt;" class="s5" d="m882.6 912.1c-0.2-0.1 10.3-68.4 23.5-152.6 13.2-84.2 24.2-152.4 24.5-152.3 0.3 0-10.2 68.3-23.5 152.5-13.2 84.2-24.2 152.4-24.5 152.4z"/>
					</g>
				</g>
			</g>
			<g id="&lt;Group&gt;" style="opacity: .2">
				<g id="&lt;Group&gt;">
					<path id="&lt;Path&gt;" class="s10" d="m831.2 612.6c9.9-4.4 16-14.6 18.6-25.1 2.5-10.4 2.1-21.3 2.5-32.1 0.4-10.8 1.7-21.9 7.2-31.2 3.2-5.4 7.8-10 11.4-15.2 3.6-5.3 6.3-11.7 5-17.9l-61.6 0.3z"/>
				</g>
			</g>
			<g id="&lt;Group&gt;">
				<g id="&lt;Group&gt;">
					<path id="&lt;Path&gt;" class="s5" d="m575.9 690.9q0 0.1-0.6 0.8-0.8 0.8-1.8 1.9c-1.7 1.6-4.1 4-7 6.9-6 5.8-14.4 13.6-23.9 22-9.5 8.4-18.3 15.7-24.7 20.9-3.3 2.6-5.9 4.7-7.8 6.1q-1.2 0.9-2.1 1.6-0.8 0.5-0.8 0.5 0-0.1 0.7-0.7 0.8-0.7 2-1.7c1.9-1.6 4.4-3.8 7.5-6.4 6.3-5.3 15.1-12.7 24.5-21.1 9.5-8.4 18-16.1 24.1-21.7 2.9-2.8 5.3-5 7.2-6.7q1.1-1.1 2-1.8 0.7-0.6 0.7-0.6z"/>
				</g>
			</g>
			<g id="&lt;Group&gt;">
				<g id="&lt;Group&gt;">
					<path id="&lt;Path&gt;" class="s5" d="m571.4 752.4c-0.1 0-0.9-0.8-2.4-2.4-1.6-1.7-3.7-3.9-6.3-6.6-5.4-5.8-12.6-13.5-20.6-22-8.1-8.5-15.4-16.1-20.8-21.8-2.6-2.7-4.7-5-6.3-6.7-1.5-1.5-2.3-2.4-2.3-2.5 0.1 0 1 0.8 2.6 2.3 1.5 1.4 3.8 3.6 6.5 6.3 5.5 5.5 13 13.1 21.1 21.7 8.1 8.5 15.3 16.4 20.4 22.2 2.5 2.9 4.6 5.2 6 6.9 1.4 1.6 2.1 2.5 2.1 2.6z"/>
				</g>
			</g>
			<g id="&lt;Group&gt;">
				<g id="&lt;Group&gt;">
					<path id="&lt;Path&gt;" class="s7" d="m592.7 709.3q0 0 0.7-1.5c0.4-1 1.1-2.5 2.4-4.2 2.4-3.5 7-8.3 14.8-11.1 1.9-0.7 4-1.3 6.3-1.6 2.2-0.3 4.6-0.4 7.1-0.2 5 0.4 10.2 2.2 15.2 5.2 4.9 3 9.6 7.4 13.1 13 3.4 5.6 5.9 12.5 5.4 19.9-0.2 3.7-1.3 7.4-3.4 10.7-2 3.2-4.9 6.1-8.2 8.3-6.7 4.4-15.2 6.6-23.8 6.2-4.3-0.3-8.6-1.2-12.8-2.8-4.1-1.7-8.1-4.2-11.2-7.6-1.5-1.8-2.8-3.7-3.9-5.8-0.9-2.2-1.6-4.5-2-6.8-0.7-4.7-0.2-9.6 1.2-14.3 2.9-9.2 9.6-17.6 18.6-22.5 8.9-5 20.3-5.6 30.1-1.3 4.8 2 9.3 5.3 12.6 9.6 3.3 4.3 5.3 9.6 5.9 15 0.7 5.4-0.1 11.1-2.6 16.2-1.2 2.5-2.8 4.8-4.7 6.8-2 2-4.2 3.8-6.6 5.2-9.8 5.6-21.8 6.4-32.2 3-5.2-1.6-10.1-4.3-14-8-3.9-3.7-6.8-8.6-7.8-13.9-1-5.2-0.4-10.7 2.1-15.4 1.3-2.3 3-4.3 5.1-5.9 2.1-1.6 4.4-2.7 6.8-3.6 4.9-1.7 10-2.1 14.9-2 4.9 0.2 9.8 0.7 14.5 2.1 4.6 1.3 9.1 3.5 12.6 6.7 3.5 3.3 5.9 7.6 6.8 12.2 0.9 4.5 0.6 9.2-0.8 13.5-1.4 4.2-3.9 8-7 11.1-6.2 6-14.4 9.4-22.4 9.7-4 0.2-8-0.3-11.6-1.7-3.6-1.3-6.9-3.4-9.4-6.1-2.5-2.7-4.3-5.9-5.4-9.3-1.1-3.3-1.6-6.7-1.4-10 0.2-6.7 3.1-12.6 7-16.9 4-4.3 8.8-7.1 13.5-8.7 4.7-1.6 9.4-1.7 13.4-1.3 8.2 1.1 13.9 4.5 17.3 7 1.7 1.3 2.9 2.4 3.7 3.1q1.1 1.2 1.1 1.2 0 0-1.2-1.1c-0.8-0.7-2-1.8-3.8-3.1-3.4-2.4-9-5.7-17.1-6.7-4-0.4-8.6-0.2-13.2 1.4-4.7 1.5-9.4 4.4-13.2 8.6-3.8 4.2-6.7 10-6.9 16.5-0.1 3.3 0.3 6.6 1.5 9.8 1.1 3.2 2.8 6.4 5.3 9 2.4 2.6 5.6 4.6 9.1 5.9 3.5 1.3 7.4 1.8 11.3 1.6 7.8-0.3 15.8-3.6 21.8-9.6 3-2.9 5.4-6.6 6.8-10.7 1.3-4.1 1.6-8.7 0.7-13-0.9-4.4-3.2-8.6-6.5-11.7-3.4-3.1-7.7-5.2-12.3-6.5-4.5-1.3-9.4-1.9-14.2-2-4.9-0.1-9.9 0.3-14.6 2-4.6 1.5-8.9 4.6-11.3 9-2.4 4.4-3 9.7-2 14.7 1 5.1 3.7 9.7 7.5 13.3 3.8 3.6 8.6 6.2 13.6 7.8 10.1 3.3 21.9 2.6 31.3-2.9 2.4-1.4 4.5-3 6.4-5 1.9-1.9 3.4-4.2 4.6-6.6 2.3-4.8 3.1-10.3 2.5-15.6-0.6-5.2-2.5-10.3-5.7-14.5-3.2-4.1-7.5-7.3-12.2-9.3-9.5-4.1-20.6-3.6-29.3 1.3-8.7 4.8-15.2 12.9-18 21.9-1.4 4.5-1.9 9.3-1.3 13.9 0.4 2.2 1 4.4 2 6.5 1 2 2.2 3.9 3.7 5.6 3 3.3 6.8 5.7 10.8 7.3 4.1 1.7 8.3 2.5 12.6 2.8 8.4 0.5 16.7-1.7 23.2-6 6.6-4.2 11-11.2 11.4-18.4 0.5-7.2-1.9-13.9-5.3-19.4-3.4-5.5-8-9.9-12.8-12.9-4.9-3-10.1-4.7-15-5.2-2.4-0.2-4.8-0.2-7 0.2-2.2 0.3-4.3 0.8-6.2 1.5-7.6 2.7-12.3 7.4-14.8 10.8-1.2 1.7-2 3.1-2.4 4.1q-0.7 1.5-0.8 1.5z"/>
				</g>
			</g>
			<g id="&lt;Group&gt;">
				<g id="&lt;Group&gt;">
					<path id="&lt;Path&gt;" class="s5" d="m646.9 764.5c0.2 0.3-15.7 13.8-35.4 30.3-19.8 16.5-36 29.7-36.1 29.5-0.2-0.2 15.6-13.8 35.4-30.3 19.8-16.5 35.9-29.7 36.1-29.5z"/>
				</g>
			</g>
			<g id="&lt;Group&gt;">
				<g id="&lt;Group&gt;">
					<path id="&lt;Path&gt;" class="s5" d="m650.4 822.5c-0.1 0.1-1-0.6-2.7-1.9-1.8-1.4-4.2-3.2-7-5.4-5.9-4.7-14-11.2-22.9-18.5-8.9-7.2-17-13.8-22.8-18.6-2.7-2.4-5-4.3-6.8-5.8-1.6-1.4-2.4-2.2-2.4-2.2 0.1-0.1 1 0.6 2.7 1.9 1.8 1.4 4.1 3.3 7 5.5 5.9 4.7 14 11.2 22.9 18.4 8.9 7.3 17 13.9 22.8 18.7 2.7 2.3 5 4.3 6.8 5.7 1.6 1.4 2.4 2.2 2.4 2.2z"/>
				</g>
			</g>
			<g id="&lt;Group&gt;">
				<g id="&lt;Group&gt;">
					<path id="&lt;Path&gt;" class="s5" d="m813.9 765.3c0.1 0.2-15 11.9-33.9 26-18.9 14.1-34.4 25.3-34.5 25.1-0.2-0.3 15-11.9 33.9-26 18.9-14.1 34.3-25.3 34.5-25.1z"/>
				</g>
			</g>
			<g id="&lt;Group&gt;">
				<g id="&lt;Group&gt;">
					<path id="&lt;Path&gt;" class="s5" d="m819.8 814.5c-0.2 0.3-16.3-9.7-36-22.3-19.7-12.6-35.6-22.9-35.4-23.2 0.1-0.2 16.2 9.8 35.9 22.3 19.8 12.6 35.6 23 35.5 23.2z"/>
				</g>
			</g>
			<g id="&lt;Group&gt;">
				<g id="&lt;Group&gt;">
					<path id="&lt;Path&gt;" class="s7" d="m649.5 911.7c-0.2-0.2 15.6-16.8 35.2-36.9 19.7-20.2 35.7-36.4 35.9-36.2 0.3 0.2-15.5 16.8-35.1 36.9-19.7 20.2-35.8 36.4-36 36.2z"/>
				</g>
			</g>
			<g id="&lt;Group&gt;">
				<g id="&lt;Group&gt;">
					<path id="&lt;Path&gt;" class="s7" d="m716.1 911.6q0 0.1-0.6-0.7-0.7-0.8-1.7-2c-1.6-2-3.6-4.6-6.2-7.8-5.2-6.5-12.6-15.4-21.2-24.8-8.6-9.4-16.7-17.6-22.7-23.4-2.9-2.8-5.3-5.1-7.1-6.8q-1.2-1.2-2-1.9-0.6-0.7-0.6-0.7 0.1-0.1 0.8 0.5 0.8 0.7 2 1.8c1.8 1.5 4.3 3.7 7.4 6.6 6.1 5.7 14.4 13.8 23 23.2 8.6 9.5 15.9 18.4 21 25.1 2.6 3.3 4.6 6 5.9 7.9q0.9 1.3 1.6 2.2 0.5 0.8 0.4 0.8z"/>
				</g>
			</g>
			<g id="&lt;Group&gt;">
				<g id="&lt;Group&gt;">
					<g id="&lt;Group&gt;">
						<path id="&lt;Path&gt;" class="s4" d="m552.4 827.5c0 0 0.7 49.2-11.7 78.6l-75.6-12.9c0 0 22.7-46.6 16.5-72.4z"/>
					</g>
				</g>
				<g id="&lt;Group&gt;">
					<g id="&lt;Group&gt;">
						<g id="&lt;Group&gt;">
							<path id="&lt;Path&gt;" class="s7" d="m552.4 825.7c0 0-9.5 60.2-15.3 78.2l-75.1-14.8c0 0 15.4-58.3 15.2-74.6z"/>
						</g>
					</g>
					<g id="&lt;Group&gt;">
						<g id="&lt;Group&gt;">
							<g id="&lt;Group&gt;">
								<path id="&lt;Path&gt;" class="s2" d="m484.9 841.6c-0.1 0.2 11.1 2.8 25 5.8 13.9 2.9 25.2 5 25.3 4.8 0.1-0.3-11.2-2.9-25.1-5.8-13.9-3-25.2-5.1-25.2-4.8z"/>
							</g>
						</g>
					</g>
					<g id="&lt;Group&gt;">
						<g id="&lt;Group&gt;">
							<g id="&lt;Group&gt;">
								<path id="&lt;Path&gt;" class="s2" d="m483 854.3c-0.1 0.3 11.1 2.9 25 5.8 13.9 3 25.2 5.1 25.3 4.8 0-0.2-11.2-2.8-25.1-5.8-13.9-2.9-25.2-5-25.2-4.8z"/>
							</g>
						</g>
					</g>
					<g id="&lt;Group&gt;">
						<g id="&lt;Group&gt;">
							<g id="&lt;Group&gt;">
								<path id="&lt;Path&gt;" class="s2" d="m494 868.8c-0.1 0.1 1.5 0.6 4.1 1.2 2.6 0.7 6.1 1.5 10.1 2.3 3.9 0.8 7.5 1.5 10.2 2 2.6 0.5 4.2 0.7 4.2 0.5 0.1-0.1-1.5-0.6-4.1-1.2-2.6-0.6-6.1-1.5-10.1-2.3-4-0.8-7.6-1.5-10.2-2-2.6-0.4-4.2-0.6-4.2-0.5z"/>
							</g>
						</g>
					</g>
				</g>
			</g>
			<g id="&lt;Group&gt;">
				<g id="&lt;Group&gt;">
					<g id="&lt;Group&gt;">
						<path id="&lt;Path&gt;" class="s4" d="m910 689.5c0 0 7.7 47.9-0.1 78.5l-75.7-1.7c0 0 15.5-48.7 5.6-73.1z"/>
					</g>
				</g>
				<g id="&lt;Group&gt;">
					<g id="&lt;Group&gt;">
						<g id="&lt;Group&gt;">
							<path id="&lt;Path&gt;" class="s6" d="m909.7 687.7c0 0-0.5 60.3-3.6 78.6l-75.5-3.5c0 0 6.6-59.2 4-75.1z"/>
						</g>
					</g>
					<g id="&lt;Group&gt;">
						<g id="&lt;Group&gt;">
							<g id="&lt;Group&gt;">
								<path id="&lt;Path&gt;" class="s2" d="m845.3 714.5c0 0.3 11.3 0.6 25.4 0.6 14 0 25.4-0.2 25.4-0.5 0-0.3-11.4-0.5-25.4-0.5-14.1 0-25.4 0.2-25.4 0.4z"/>
							</g>
						</g>
					</g>
					<g id="&lt;Group&gt;">
						<g id="&lt;Group&gt;">
							<g id="&lt;Group&gt;">
								<path id="&lt;Path&gt;" class="s2" d="m846 727.3c0 0.3 11.4 0.5 25.4 0.5 14 0 25.4-0.2 25.4-0.4 0-0.3-11.4-0.6-25.4-0.6-14 0-25.4 0.2-25.4 0.5z"/>
							</g>
						</g>
					</g>
					<g id="&lt;Group&gt;">
						<g id="&lt;Group&gt;">
							<g id="&lt;Group&gt;">
								<path id="&lt;Path&gt;" class="s2" d="m859.5 739c0 0.2 1.7 0.3 4.3 0.4 2.6 0.1 6.2 0.1 10.2 0.2 4 0 7.6-0.1 10.2-0.2 2.7-0.1 4.3-0.2 4.3-0.3 0-0.2-1.6-0.3-4.3-0.4-2.6-0.1-6.2-0.1-10.2-0.2-4 0-7.6 0.1-10.2 0.2-2.6 0.1-4.3 0.2-4.3 0.3z"/>
							</g>
						</g>
					</g>
				</g>
			</g>
			<g id="&lt;Group&gt;">
				<path id="&lt;Path&gt;" class="s5" d="m926.1 551.5c-14.1 0-28.4-8.9-35.8-22.8-7.3-13.5-9.6-30-6.4-45.2 4.1-20.1 17.4-36.4 33.7-41.7 13.9-4.4 38.8-1.9 50.5 17.7 9.1 15.2 8.1 31 8.1 31.6-0.2 3.3-3.1 5.8-6.4 5.6-3.3-0.2-5.8-3.1-5.6-6.4 0-0.2 0.7-12.8-6.4-24.7-9.1-15.1-28.9-14.8-36.5-12.3-14 4.4-23 19.6-25.7 32.6-2.6 12.5-0.7 26.1 5.2 37.1 5.9 11 17.9 17.9 28.5 16.2 3.2-0.5 6.3 1.8 6.8 5.1 0.5 3.2-1.7 6.3-5 6.8q-2.5 0.4-5 0.4z"/>
			</g>
			<g id="&lt;Group&gt;">
				<path id="&lt;Path&gt;" class="s5" d="m538.6 551.5c-14.1 0-28.3-8.9-35.8-22.8-7.2-13.5-9.5-30-6.4-45.2 3.5-16.9 15.4-36.3 33.9-41.7 8.5-2.5 18.7-1.9 27.3 1.4l-4.3 11.2c-7.4-2.9-15-2.4-19.6-1.1-13.8 4-22.8 19.3-25.5 32.6-2.6 12.5-0.7 26.1 5.2 37.1 5.9 11 17.9 17.9 28.4 16.2l1.8 11.9q-2.5 0.4-5 0.4z"/>
			</g>
			<g id="&lt;Group&gt;">
				<path id="&lt;Path&gt;" class="s7" d="m921.1 491.4l-5.6 30.2h81.3l7.2-29.9z"/>
			</g>
			<g id="&lt;Group&gt;">
				<path id="&lt;Path&gt;" class="s5" d="m559.2 546.7c0 7.1-5.8 12.9-12.9 12.9-7.1 0-12.9-5.8-12.9-12.9 0-7.1 5.8-12.9 12.9-12.9 7.1 0 12.9 5.8 12.9 12.9z"/>
			</g>
			<g id="&lt;Group&gt;">
				<path id="&lt;Path&gt;" class="s5" d="m946.2 546.7c0 7.1-5.7 12.9-12.9 12.9-7.1 0-12.9-5.8-12.9-12.9 0-7.1 5.8-12.9 12.9-12.9 7.2 0 12.9 5.8 12.9 12.9z"/>
			</g>
		</g>
	</g>
	<g id="Character">
		<g id="&lt;Group&gt;">
			<g id="&lt;Group&gt;">
				<g id="&lt;Group&gt;">
					<path id="&lt;Path&gt;" class="s11" d="m733.1 296.6l-21.2 80.6-73.4 7.9v13l103.1 3.6 19.3-90.4z"/>
				</g>
			</g>
		</g>
		<g id="&lt;Group&gt;">
			<g id="&lt;Group&gt;">
				<g id="&lt;Group&gt;">
					<path id="&lt;Path&gt;" class="s5" d="m764 403.8c0 0-114.5-5.4-147.2 20.1-32.6 25.6-16.9 67.2-16.9 67.2l184.4-0.5 16.2-93.4z"/>
				</g>
				<g id="&lt;Group&gt;">
					<g id="&lt;Group&gt;">
						<path id="&lt;Path&gt;" class="s6" d="m783.5 465.5q0 0.1-1.7-0.1c-1-0.1-2.6-0.3-4.7-0.6-4-0.5-9.9-1.3-17.2-2.5-14.4-2.5-34.3-6.6-55.9-13-10.7-3.1-20.9-6.3-30.3-8.7-9.4-2.3-18-3.7-25.3-4-7.3-0.3-13.3 0.2-17.3 1-2 0.2-3.5 0.7-4.6 0.9q-1.6 0.4-1.6 0.3 0 0 1.5-0.5c1.1-0.2 2.6-0.8 4.6-1.1 4-0.9 10-1.6 17.4-1.4 7.4 0.2 16.1 1.7 25.5 3.9 9.5 2.3 19.7 5.5 30.4 8.7 21.5 6.3 41.3 10.5 55.8 13.1 7.2 1.4 13 2.3 17.1 2.9q2.9 0.5 4.7 0.8 1.6 0.2 1.6 0.3z"/>
					</g>
				</g>
				<g id="&lt;Group&gt;">
					<g id="&lt;Group&gt;">
						<path id="&lt;Path&gt;" class="s6" d="m677 440.1c-0.2 0.2-4-3.9-10.1-7.1-6.1-3.2-11.7-4-11.6-4.3 0-0.1 1.4-0.1 3.7 0.4 2.2 0.4 5.3 1.4 8.4 3 3.1 1.6 5.6 3.6 7.2 5.2 1.7 1.6 2.5 2.7 2.4 2.8z"/>
					</g>
				</g>
			</g>
			<g id="&lt;Group&gt;">
				<g id="&lt;Group&gt;">
					<path id="&lt;Path&gt;" class="s7" d="m776.1 652.9l1.6 48.1-9.8 38.4c-0.7 2.8 1.1 5.6 3.9 6.1 1.6 0.3 3.2-0.2 4.3-1.3 7.3-7.1 34-33.4 33.7-36.9-0.4-4.1 1.7-51 1.7-51z"/>
				</g>
				<g id="&lt;Group&gt;" style="opacity: .6">
					<path id="&lt;Path&gt;" class="s2" d="m771.8 745.5l38-41.5v2c0 1.8-0.6 3.5-1.7 4.9-3.1 3.6-11.6 13.4-31.8 33.3-1.2 1.2-2.9 1.7-4.5 1.3z"/>
				</g>
				<g id="&lt;Group&gt;" style="opacity: .6">
					<g id="&lt;Group&gt;">
						<path id="&lt;Path&gt;" class="s2" d="m799.7 688.5c-1.2 0.9-1.5 2.7-0.7 4 0.7 1.2 2.6 1.6 3.8 0.8 1.2-0.9 1.8-3 0.8-4.2-0.9-1.1-3.1-1.5-4.1-0.4"/>
					</g>
				</g>
				<g id="&lt;Group&gt;">
					<g id="&lt;Group&gt;">
						<path id="&lt;Path&gt;" class="s5" d="m782.6 724.4c-0.2 0.1-1.4-2.4-4.2-3.7-2.9-1.5-5.5-0.8-5.6-1 0-0.2 0.6-0.5 1.7-0.7 1.1-0.2 2.8 0 4.3 0.7 1.6 0.8 2.7 2 3.3 2.9 0.6 1 0.6 1.7 0.5 1.8z"/>
					</g>
				</g>
				<g id="&lt;Group&gt;">
					<g id="&lt;Group&gt;">
						<path id="&lt;Path&gt;" class="s5" d="m779.3 730.9c-0.3 0.2-1.8-1.4-4.3-2.1-2.5-0.7-4.7-0.2-4.7-0.5-0.2-0.3 2.1-1.3 5-0.5 2.8 0.8 4.2 2.9 4 3.1z"/>
					</g>
				</g>
				<g id="&lt;Group&gt;">
					<g id="&lt;Group&gt;">
						<path id="&lt;Path&gt;" class="s5" d="m788.9 716c-0.2 0.3-2.6-2.1-6.4-3.5-3.7-1.5-7.1-1.3-7.1-1.6-0.1-0.3 3.5-1 7.5 0.6 4.1 1.5 6.3 4.4 6 4.5z"/>
					</g>
				</g>
				<g id="&lt;Group&gt;">
					<g id="&lt;Group&gt;">
						<path id="&lt;Path&gt;" class="s5" d="m789.7 701.4c-0.1 0.3-2.8-0.8-6.3-0.9-3.4-0.2-6.2 0.7-6.3 0.4-0.1-0.2 2.6-1.6 6.4-1.5 3.7 0.1 6.3 1.7 6.2 2z"/>
					</g>
				</g>
				<g id="&lt;Group&gt;">
					<g id="&lt;Group&gt;">
						<path id="&lt;Path&gt;" class="s5" d="m789.6 687.2c-0.1 0.3-2.8-1.3-6.5-1.1-3.7 0.1-6.2 1.9-6.4 1.7 0-0.1 0.5-0.7 1.6-1.4 1.1-0.6 2.8-1.3 4.8-1.3 1.9-0.1 3.7 0.3 4.8 0.9 1.2 0.5 1.8 1.1 1.7 1.2z"/>
					</g>
				</g>
				<g id="&lt;Group&gt;">
					<g id="&lt;Group&gt;">
						<path id="&lt;Path&gt;" class="s5" d="m783.2 683.4c-0.1 0-0.2-0.6-0.1-1.8 0.1-1.2 0.4-2.9 1.4-4.8 0.5-0.9 1-2 2.4-2.7 0.6-0.3 1.6-0.2 2.2 0.4 0.6 0.6 0.8 1.4 0.8 2.2 0 3.1-2.6 6-6.1 6.5-3.4 0.4-6.6-1.5-7.9-4.1-0.4-0.7-0.6-1.6-0.2-2.4 0.4-0.8 1.3-1.1 2-1 1.5 0.2 2.4 1 3.2 1.6 1.7 1.3 2.7 2.7 3.3 3.7 0.6 1 0.8 1.6 0.8 1.7-0.2 0.1-1.2-2.4-4.5-4.8-0.9-0.6-1.8-1.3-2.8-1.4-0.6 0-1 0.2-1.2 0.6-0.1 0.4 0 1 0.2 1.5 1.2 2.2 4.1 4 7 3.6 2.9-0.4 5.2-3 5.2-5.5 0-0.6-0.1-1.2-0.5-1.5-0.3-0.4-0.7-0.5-1.2-0.3-0.9 0.4-1.5 1.4-2.1 2.3-1.9 3.5-1.7 6.3-1.9 6.2z"/>
					</g>
				</g>
			</g>
			<g id="&lt;Group&gt;">
				<path id="&lt;Path&gt;" class="s5" d="m800.5 397.2c0 0-49.5 93.6-50.2 109.9-0.7 16.3 0 167 0 167h76.7c2 0 13.5-67.9 11.2-83.5-2.4-15.6-10.6-99.6-10.6-99.6h44.1c0 0 12.1-12.9 11.6-29.4-0.2-9-6.1-27.5-12-37.4-3.8-6.3-28-39.2-28-39.2z"/>
			</g>
			<g id="&lt;Group&gt;">
				<g id="&lt;Group&gt;">
					<path id="&lt;Path&gt;" class="s6" d="m797.2 403.5q0 0-0.2 0.5-0.3 0.6-0.7 1.6-1.1 2.1-2.9 5.8-1.9 3.8-4.6 9.2-1.4 2.7-2.9 5.7-1.5 3.1-3 6.6c-4.3 9.2-9.4 20.1-15 32.2-2.8 6-5.8 12.4-8.9 19q-2.2 4.9-4.6 10c-1.5 3.4-2.7 7-3.4 10.8-0.8 3.7-1.1 7.5-1.2 11.2-0.1 3.8-0.2 7.5-0.3 11.1-0.1 7.3-0.1 14.3-0.1 20.9 0 13.4 0.2 25.4 0.3 35.5 0.2 10.1 0.3 18.2 0.4 24q0 4.1 0.1 6.5-0.1 1-0.1 1.7 0 0.5 0 0.5 0 0-0.1-0.5 0-0.7-0.1-1.7-0.1-2.4-0.2-6.5c-0.2-5.7-0.5-13.9-0.7-24-0.3-10.1-0.5-22.1-0.5-35.5-0.1-6.6-0.1-13.7 0-20.9 0.1-3.7 0.1-7.4 0.3-11.1 0-3.8 0.4-7.6 1.2-11.5 0.7-3.8 1.9-7.4 3.4-10.9q2.4-5.1 4.7-10.1c3.1-6.6 6.1-12.9 8.9-18.9 5.7-12.1 10.9-23 15.2-32.1q1.6-3.5 3.1-6.6 1.6-3 2.9-5.7 2.8-5.3 4.8-9.1 2-3.7 3.1-5.7 0.5-0.9 0.8-1.5 0.3-0.5 0.3-0.5z"/>
				</g>
			</g>
			<g id="&lt;Group&gt;">
				<g id="&lt;Group&gt;">
					<path id="&lt;Path&gt;" class="s6" d="m781.2 435.4c-0.3 0.1-2-5.2-4-11.7-2-6.5-3.7-11.8-3.4-11.9 0.3-0.1 2.3 5.1 4.4 11.6 2 6.5 3.3 11.9 3 12z"/>
				</g>
			</g>
			<g id="&lt;Group&gt;">
				<g id="&lt;Group&gt;">
					<path id="&lt;Path&gt;" class="s6" d="m838.3 587.7q0 0-0.2-1.1-0.2-1.2-0.4-3c-0.4-2.8-0.9-6.7-1.4-11.3-1.1-9.7-2.6-22.9-4.3-37.4-1.6-14.6-2.9-27.8-3.8-37.4-0.3-4.7-0.7-8.5-0.9-11.3q-0.1-1.9-0.2-3.1-0.1-1.1 0-1.1 0 0 0.2 1.1 0.2 1.2 0.4 3c0.3 2.9 0.8 6.7 1.3 11.4 1 9.6 2.5 22.8 4.1 37.3 1.5 14.5 2.9 27.7 3.9 37.4 0.4 4.7 0.8 8.5 1.1 11.3q0.1 1.9 0.2 3.1 0.1 1.1 0 1.1z"/>
				</g>
			</g>
		</g>
		<g id="&lt;Group&gt;">
			<g id="&lt;Group&gt;">
				<path id="&lt;Path&gt;" class="s5" d="m818.8 146.3c-1.1-7.9 5.7-15.7 13.6-16.6 8-1 15.9 4.1 19.6 11.2 3.6 7.1 3.4 15.8 0.6 23.3-1.9 5-5.7 10.2-11.1 10.6-5.2 0.3-9.5-3.7-13.1-7.5"/>
			</g>
			<g id="&lt;Group&gt;">
				<path id="&lt;Path&gt;" class="s5" d="m762.5 186c-15.9-35.1 22-52.7 42.7-46.9 19.4 5.5 27.7 15.2 30.9 28.2 3.2 13 3.1 27.1-2 39.5-2.5 6.1-7.1 12.3-13.6 13.1"/>
			</g>
			<g id="&lt;Group&gt;">
				<g id="&lt;Group&gt;">
					<g id="&lt;Group&gt;">
						<g id="&lt;Group&gt;">
							<g id="&lt;Group&gt;">
								<g id="&lt;Group&gt;">
									<g id="&lt;Group&gt;">
										<g id="&lt;Group&gt;">
											<g id="&lt;Group&gt;">
												<g id="&lt;Group&gt;">
													<g id="&lt;Group&gt;">
														<g id="&lt;Group&gt;">
															<g id="&lt;Group&gt;">
																<g id="&lt;Group&gt;">
																	<path id="&lt;Path&gt;" class="s11" d="m817.6 158.6c3.4 0.4 6 3.3 5.9 6.7l-3.7 89.3c-0.2 10.5-15.6 16.5-26.9 16.2-11.3-0.2-11.7-5.8-11.9-15.8-0.3-16.8-0.3-23.1-0.3-23 0 0-14.4-2.4-17.3-21.2-1.5-9.3-1.1-24.6-0.3-37.1 0.7-11.3 8.2-25.1 19.4-23.9z"/>
																</g>
															</g>
														</g>
													</g>
												</g>
											</g>
										</g>
										<g id="&lt;Group&gt;">
											<g id="&lt;Group&gt;">
												<g id="&lt;Group&gt;">
													<g id="&lt;Group&gt;">
														<g id="&lt;Group&gt;">
															<g id="&lt;Group&gt;">
																<g id="&lt;Group&gt;">
																	<g id="&lt;Group&gt;">
																		<path id="&lt;Path&gt;" class="s5" d="m770.4 184.3c0 1.3 1 2.4 2.3 2.5 1.4 0 2.5-0.9 2.5-2.2 0.1-1.3-1-2.4-2.3-2.4-1.3-0.1-2.4 0.9-2.5 2.1z"/>
																	</g>
																</g>
															</g>
														</g>
													</g>
												</g>
											</g>
											<g id="&lt;Group&gt;">
												<g id="&lt;Group&gt;">
													<g id="&lt;Group&gt;">
														<g id="&lt;Group&gt;">
															<g id="&lt;Group&gt;">
																<g id="&lt;Group&gt;">
																	<g id="&lt;Group&gt;">
																		<g id="&lt;Group&gt;">
																			<path id="&lt;Path&gt;" class="s5" d="m766.4 181.6c0.3 0.3 2.2-1 4.8-1 2.6 0 4.5 1.3 4.7 1 0.2-0.2-0.1-0.7-1-1.3-0.8-0.6-2.2-1.2-3.8-1.2-1.6 0-2.9 0.6-3.7 1.2-0.8 0.6-1.1 1.2-1 1.3z"/>
																		</g>
																	</g>
																</g>
															</g>
														</g>
													</g>
												</g>
											</g>
										</g>
										<g id="&lt;Group&gt;">
											<g id="&lt;Group&gt;">
												<g id="&lt;Group&gt;">
													<g id="&lt;Group&gt;">
														<g id="&lt;Group&gt;">
															<g id="&lt;Group&gt;">
																<g id="&lt;Group&gt;">
																	<g id="&lt;Group&gt;">
																		<path id="&lt;Path&gt;" class="s5" d="m795.8 184.3c-0.1 1.3 1 2.4 2.3 2.5 1.3 0 2.4-0.9 2.5-2.2 0-1.3-1-2.4-2.4-2.4-1.3-0.1-2.4 0.9-2.4 2.1z"/>
																	</g>
																</g>
															</g>
														</g>
													</g>
												</g>
											</g>
											<g id="&lt;Group&gt;">
												<g id="&lt;Group&gt;">
													<g id="&lt;Group&gt;">
														<g id="&lt;Group&gt;">
															<g id="&lt;Group&gt;">
																<g id="&lt;Group&gt;">
																	<g id="&lt;Group&gt;">
																		<g id="&lt;Group&gt;">
																			<path id="&lt;Path&gt;" class="s5" d="m791.9 182.1c0.3 0.3 2.2-1 4.8-1 2.5 0 4.4 1.3 4.7 1 0.2-0.2-0.1-0.7-1-1.3-0.8-0.6-2.2-1.2-3.8-1.2-1.6 0-3 0.6-3.7 1.2-0.8 0.6-1.1 1.2-1 1.3z"/>
																		</g>
																	</g>
																</g>
															</g>
														</g>
													</g>
												</g>
											</g>
										</g>
										<g id="&lt;Group&gt;">
											<g id="&lt;Group&gt;">
												<g id="&lt;Group&gt;">
													<g id="&lt;Group&gt;">
														<g id="&lt;Group&gt;">
															<g id="&lt;Group&gt;">
																<g id="&lt;Group&gt;">
																	<g id="&lt;Group&gt;">
																		<path id="&lt;Path&gt;" class="s5" d="m782.5 201.3c0-0.1-1.6-0.4-4.2-0.7-0.6-0.1-1.3-0.2-1.4-0.7-0.1-0.4 0.1-1.2 0.5-1.9q0.9-2.4 1.9-5.1c2.7-7.2 4.7-13.1 4.4-13.2-0.3-0.1-2.7 5.7-5.4 12.8q-1 2.7-1.9 5.1c-0.3 0.8-0.7 1.6-0.4 2.6 0.2 0.5 0.7 0.9 1.1 1 0.5 0.1 0.8 0.1 1.2 0.1 2.6 0.2 4.2 0.2 4.2 0z"/>
																	</g>
																</g>
															</g>
														</g>
													</g>
												</g>
											</g>
										</g>
										<g id="&lt;Group&gt;">
											<g id="&lt;Group&gt;">
												<g id="&lt;Group&gt;">
													<g id="&lt;Group&gt;">
														<g id="&lt;Group&gt;">
															<g id="&lt;Group&gt;">
																<g id="&lt;Group&gt;">
																	<path id="&lt;Path&gt;" class="s12" d="m780.7 232c0 0 12.7 0.8 25.2-6.7 0 0-6.1 12.9-24.9 11.2z"/>
																</g>
															</g>
														</g>
													</g>
												</g>
											</g>
										</g>
										<g id="&lt;Group&gt;">
											<g id="&lt;Group&gt;">
												<g id="&lt;Group&gt;">
													<g id="&lt;Group&gt;">
														<g id="&lt;Group&gt;">
															<g id="&lt;Group&gt;">
																<g id="&lt;Group&gt;">
																	<path id="&lt;Path&gt;" class="s12" d="m783.6 207.6c1-1.2 2.6-1.9 4.2-1.7 1.1 0.1 2.3 0.6 3 1.5 0.6 0.9 0.8 2.3 0.2 3.1-0.7 1-2.2 1.2-3.4 0.9-1.3-0.4-2.3-1.2-3.4-2-0.2-0.2-0.5-0.5-0.7-0.8-0.2-0.3-0.2-0.7 0-0.9"/>
																</g>
															</g>
														</g>
													</g>
												</g>
											</g>
										</g>
										<g id="&lt;Group&gt;">
											<g id="&lt;Group&gt;">
												<g id="&lt;Group&gt;">
													<g id="&lt;Group&gt;">
														<g id="&lt;Group&gt;">
															<g id="&lt;Group&gt;">
																<g id="&lt;Group&gt;">
																	<g id="&lt;Group&gt;">
																		<path id="&lt;Path&gt;" class="s5" d="m790.2 203.1c-0.5 0-0.5 2.8-2.9 4.8-2.4 2-5.4 1.7-5.4 2.1 0 0.2 0.7 0.5 1.9 0.6 1.3 0 3.1-0.4 4.6-1.6 1.4-1.2 2.1-2.9 2.2-4 0.1-1.2-0.3-1.9-0.4-1.9z"/>
																	</g>
																</g>
															</g>
														</g>
													</g>
												</g>
											</g>
										</g>
									</g>
								</g>
							</g>
							<g id="&lt;Group&gt;">
								<g id="&lt;Group&gt;">
									<g id="&lt;Group&gt;">
										<g id="&lt;Group&gt;">
											<g id="&lt;Group&gt;">
												<g id="&lt;Group&gt;">
													<g id="&lt;Group&gt;">
														<path id="&lt;Path&gt;" class="s5" d="m790.8 177.6c0.2 0.7 2.8 0.3 5.9 0.7 3 0.3 5.5 1.2 5.9 0.6 0.1-0.3-0.3-1-1.3-1.7-1-0.7-2.5-1.3-4.4-1.5-1.8-0.2-3.5 0.1-4.6 0.5-1.1 0.5-1.6 1-1.5 1.4z"/>
													</g>
												</g>
											</g>
										</g>
									</g>
								</g>
							</g>
							<g id="&lt;Group&gt;">
								<g id="&lt;Group&gt;">
									<g id="&lt;Group&gt;">
										<g id="&lt;Group&gt;">
											<g id="&lt;Group&gt;">
												<g id="&lt;Group&gt;">
													<g id="&lt;Group&gt;">
														<path id="&lt;Path&gt;" class="s5" d="m767.4 174.1c0.5 0.6 2.2 0 4.4 0 2.1-0.1 4 0.4 4.4-0.2 0.2-0.3-0.1-0.9-0.9-1.5-0.8-0.5-2.1-1-3.6-1-1.5 0.1-2.7 0.6-3.5 1.2-0.7 0.6-1 1.2-0.8 1.5z"/>
													</g>
												</g>
											</g>
										</g>
									</g>
								</g>
							</g>
						</g>
					</g>
					<g id="&lt;Group&gt;">
						<g id="&lt;Group&gt;">
							<g id="&lt;Group&gt;">
								<g id="&lt;Group&gt;">
									<path id="&lt;Path&gt;" class="s5" d="m791.9 143.5c-6.9 0.2-12.1 2.3-18.1 5.6-6 3.3-11 8.7-12.9 15.3-0.4 1.4-0.6 3 0.2 4.2 1 1.7 3.4 1.9 5.1 1.1 1.8-0.7 3-2.3 4.2-3.8 0.9 3.4 4.3 6 7.9 6 3.5 0 6.9-2.7 7.7-6.2 0 3.6 3.7 6.6 7.3 6.5 3.6-0.2 6.8-2.9 8-6.3 0.6 3.2 1.3 6.5 3.3 9.1 1.9 2.7 5.3 4.5 8.5 3.5-0.5 2.8-0.9 5.7 0.1 8.4 1 2.6 5 47.8 7.6 46.9 2.6-0.9 2.6-47 3.2-49.7 1.2-5.2 2.2-10.4 2-15.7-0.1-5.3-1.5-10.7-4.8-14.9-3.4-4.4-8.5-7.1-13.8-8.5-5.3-1.4-10.8-1.6-16.3-1.5"/>
								</g>
							</g>
						</g>
					</g>
				</g>
			</g>
			<g id="&lt;Group&gt;">
				<g id="&lt;Group&gt;">
					<path id="&lt;Path&gt;" class="s5" d="m829.5 225.8q0 0-0.6 0.2c-0.4 0.2-0.9 0.4-1.7 0.5-1.6 0.2-3.9 0.2-6.6-0.7-2.7-0.9-5.8-2.8-7.8-6.1-2-3.2-2.8-7.5-2.4-11.7 0.3-4.3 1.3-8.2 1.7-11.8 0.6-3.6 0.8-6.9 0.9-9.7 0.1-2.7 0-5 0-6.5 0-1.6-0.1-2.4 0-2.4 0.1 0 0.2 0.8 0.4 2.4 0.2 1.5 0.3 3.8 0.3 6.5 0 2.8-0.1 6.1-0.6 9.8-0.4 3.7-1.4 7.6-1.7 11.7-0.3 4.2 0.4 8.2 2.3 11.2 1.8 3.1 4.6 5 7.1 5.9 2.6 0.9 4.8 1.1 6.3 1 1.6-0.2 2.4-0.4 2.4-0.3z"/>
				</g>
			</g>
			<g id="&lt;Group&gt;">
				<g id="&lt;Group&gt;">
					<path id="&lt;Path&gt;" class="s6" d="m785.2 141.1c0.1-0.1 1 1.6 1 4.4 0.1 2.9-0.9 7-4 10.3-3.1 3.2-7.2 4.3-10.1 4.3-2.8 0.1-4.5-0.7-4.4-0.8 0-0.1 1.7 0.3 4.4 0.1 2.7-0.2 6.5-1.4 9.4-4.4 2.8-3 3.9-6.8 4-9.5 0.1-2.7-0.4-4.4-0.3-4.4z"/>
				</g>
			</g>
			<g id="&lt;Group&gt;">
				<g id="&lt;Group&gt;">
					<path id="&lt;Path&gt;" class="s6" d="m788 163.2c0.1 0-0.1 1.3-1.5 2.7-1.4 1.4-4.1 2.6-7.1 2.4-3-0.2-5.5-1.4-7.1-2.4-1.6-1-2.5-1.8-2.4-1.9 0.1-0.2 1.1 0.4 2.8 1.2 1.6 0.8 4 1.9 6.7 2.1 2.8 0.1 5.2-0.9 6.6-2 1.4-1.1 1.9-2.2 2-2.1z"/>
				</g>
			</g>
			<g id="&lt;Group&gt;">
				<g id="&lt;Group&gt;">
					<path id="&lt;Path&gt;" class="s6" d="m833.3 157.5c0.1 0 0.1 1.9-0.4 5.1-0.5 3.1-1.5 7.6-4.6 11.6-3 4-7.5 5.9-10.7 6.1-1.7 0.1-3-0.1-3.8-0.4-0.9-0.2-1.3-0.5-1.3-0.6 0-0.2 1.9 0.7 5 0.3 3-0.4 7.1-2.3 10-6.1 2.9-3.7 4-8 4.7-11 0.7-3.1 0.9-5.1 1.1-5z"/>
				</g>
			</g>
			<g id="&lt;Group&gt;">
				<g id="&lt;Group&gt;">
					<path id="&lt;Path&gt;" class="s6" d="m836.7 166.6c0.1 0 0.2 0.5 0.3 1.6 0.1 1 0.2 2.5 0.1 4.3-0.1 3.7-1.1 9.1-5 13.5-1.9 2.2-4.2 3.8-6.6 4.5-2.4 0.8-4.8 0.8-6.6 0.4-1.9-0.3-3.2-1.1-4.1-1.7-0.8-0.6-1.2-1.1-1.2-1.1 0.1-0.2 1.8 1.6 5.4 2.1 1.8 0.3 4 0.2 6.2-0.6 2.2-0.7 4.4-2.2 6.2-4.3 3.6-4.1 4.7-9.3 5-12.8 0.3-3.6 0.2-5.9 0.3-5.9z"/>
				</g>
			</g>
		</g>
		<g id="&lt;Group&gt;">
			<g id="&lt;Group&gt;">
				<g id="&lt;Group&gt;">
					<path id="&lt;Path&gt;" class="s6" d="m573.1 408.3l-36.3 83h50l35.6-83.7z"/>
				</g>
			</g>
			<g id="&lt;Group&gt;">
				<g id="&lt;Group&gt;">
					<g id="&lt;Group&gt;">
						<g id="&lt;Group&gt;">
							<path id="&lt;Path&gt;" class="s0" d="m546.7 320l41 80.6h129.1l-5.2-10.6-37.4-1.1-30.5-67.9c-1.9-4.2-6.1-6.9-10.8-6.9h-82.5c-3.1 0-5.1 3.2-3.7 5.9z"/>
						</g>
					</g>
				</g>
				<g id="&lt;Group&gt;">
					<g id="&lt;Group&gt;">
						<g id="&lt;Group&gt;">
							<path id="&lt;Path&gt;" class="s5" d="m611.4 356.1c0 2.7-2.2 4.9-5 4.9-2.7 0-4.9-2.2-4.9-4.9 0-2.7 2.2-4.9 4.9-4.9 2.8 0 5 2.2 5 4.9z"/>
						</g>
					</g>
				</g>
			</g>
			<g id="&lt;Group&gt;">
				<g id="&lt;Group&gt;">
					<path id="&lt;Path&gt;" class="s6" d="m730.5 408.4h-157.8v-7.7h157.8z"/>
				</g>
			</g>
			<g id="&lt;Group&gt;">
				<g id="&lt;Group&gt;">
					<path id="&lt;Path&gt;" class="s6" d="m681.9 404.5l48 86.9h23l5-9.9 4.6-10.5-32-62.6z"/>
				</g>
			</g>
		</g>
		<g id="&lt;Group&gt;">
			<g id="&lt;Group&gt;">
				<path id="&lt;Path&gt;" class="s7" d="m765.4 255.6c0 0-27.9 9.8-33.9 41l29.4 14.7z"/>
			</g>
			<g id="&lt;Group&gt;">
				<path id="&lt;Path&gt;" class="s7" d="m765.4 255.6c0 0-19.5 43.7-18.8 67.6 0.3 8.3 5.7 30 5.7 30l10.1 53.7c0 0 77.7-10.5 79.4-10.5 1.7 0-2.6-44.1-2.6-44.1l12.6-84.8c0 0-5.8-11.5-31.9-15.5-15.8-2.4-54.5 3.6-54.5 3.6z"/>
			</g>
			<g id="&lt;Group&gt;">
				<g id="&lt;Group&gt;">
					<path id="&lt;Path&gt;" class="s5" d="m758.1 281c0.2 0.1-1.9 3.4-4.3 9-1.3 2.8-2.5 6.3-3.6 10.2-1.1 3.9-2 8.2-2.6 12.9-0.5 4.7-0.6 9.1-0.4 13.2 0.2 4 0.7 7.7 1.3 10.7 1.1 6 2.4 9.7 2.2 9.7-0.1 0-0.5-0.9-1-2.5-0.3-0.8-0.7-1.8-1-3-0.3-1.2-0.7-2.5-1-4.1-0.7-3-1.2-6.7-1.5-10.8-0.2-4.1-0.1-8.6 0.4-13.3 0.5-4.7 1.5-9.2 2.6-13.1 1.2-3.9 2.6-7.4 3.9-10.2 0.6-1.4 1.3-2.7 1.9-3.7 0.5-1.1 1.1-2 1.6-2.8 0.9-1.4 1.4-2.2 1.5-2.2z"/>
				</g>
			</g>
			<g id="&lt;Group&gt;">
				<g id="&lt;Group&gt;">
					<path id="&lt;Path&gt;" class="s13" d=""/>
				</g>
			</g>
			<g id="&lt;Group&gt;">
				<g id="&lt;Group&gt;">
					<path id="&lt;Path&gt;" class="s13" d=""/>
				</g>
			</g>
			<g id="&lt;Group&gt;">
				<path id="&lt;Path&gt;" class="s7" d="m774.8 255.2l1.1-12c0.3-2.5 2.4-4.5 5-4.6l38.3-0.5c2.4-0.1 4.5 1.8 4.6 4.2l1 12.9c0 0-4.1 10.2-15.4 15.6-11.2 5.5-28.7 5.7-28.7 5.7z"/>
			</g>
			<g id="&lt;Group&gt;">
				<g id="&lt;Group&gt;">
					<path id="&lt;Path&gt;" class="s5" d="m784.8 238.7c0.1 0.1-0.4 0.8-0.7 2.1-0.2 1.3 0 3.2 0.1 5.3 0.3 4.3 0.3 7.8 0 7.8-0.3 0-0.7-3.4-1-7.7-0.2-2.1-0.3-4.2 0.2-5.6 0.5-1.4 1.4-2 1.4-1.9z"/>
				</g>
			</g>
			<g id="&lt;Group&gt;">
				<g id="&lt;Group&gt;">
					<path id="&lt;Path&gt;" class="s5" d="m794 253.6c-0.3 0-0.7-3.4-1-7.6-0.1-2-0.2-3.9 0-5.4 0.2-1.4 0.8-2.1 0.9-2.1 0.1 0.1-0.2 0.9-0.2 2.2 0 1.3 0.3 3.2 0.4 5.3 0.2 4.1 0.2 7.5-0.1 7.6z"/>
				</g>
			</g>
			<g id="&lt;Group&gt;">
				<g id="&lt;Group&gt;">
					<path id="&lt;Path&gt;" class="s5" d="m805.5 253.2c-0.3 0.1-1-3.2-1.5-7.3-0.5-4.1-0.7-7.4-0.5-7.4 0.3-0.1 1 3.2 1.5 7.3 0.6 4.1 0.8 7.4 0.5 7.4z"/>
				</g>
			</g>
			<g id="&lt;Group&gt;">
				<g id="&lt;Group&gt;">
					<path id="&lt;Path&gt;" class="s5" d="m815.4 254.1c-0.3 0-1.1-3.6-1.4-8.1-0.4-4.5-0.1-8.2 0.2-8.2 0.3 0 0.5 3.7 0.8 8.1 0.4 4.5 0.7 8.1 0.4 8.2z"/>
				</g>
			</g>
			<g id="&lt;Group&gt;" style="opacity: .3">
				<g id="&lt;Group&gt;">
					<path id="&lt;Path&gt;" class="s10" d="m823 299.8c-1.5 13.5-0.5 36.7 4.3 49.4l22.3-37z"/>
				</g>
			</g>
			<g id="&lt;Group&gt;">
				<path id="&lt;Path&gt;" class="s7" d="m849.8 264.8l0.1 0.1c6.3 6.7 11 14.8 13.5 23.6l4.1 18.8-44 6.8c0 0-3.8-10.5-1.7-24.6 2.1-14.2 28-24.7 28-24.7z"/>
			</g>
			<g id="&lt;Group&gt;">
				<g id="&lt;Group&gt;">
					<path id="&lt;Path&gt;" class="s5" d="m867.5 307.3q0 0-0.9 0.2-1 0.2-2.5 0.5c-2.3 0.4-5.5 0.9-9.4 1.5-8.2 1.3-19.3 3-31.9 4.9l-0.5 0.1-0.1-0.6c-0.1-2.7-0.1-5.4-0.2-8.3-0.1-7.4-0.1-14.4 0.4-20.8 0.4-6.5 2.5-12.2 5.2-16.3 2.6-4.1 5.8-6.7 8.2-8 1.1-0.7 2.1-1.1 2.8-1.3q1-0.4 1-0.3c0.1 0.1-1.4 0.5-3.6 1.9-2.3 1.4-5.3 4-7.8 8.1-2.5 4.1-4.5 9.6-4.8 15.9-0.5 6.4-0.5 13.4-0.3 20.8 0 2.8 0.1 5.6 0.2 8.2l-0.6-0.5c12.6-1.7 23.7-3.3 31.9-4.5 3.9-0.5 7.1-0.9 9.5-1.2q1.5-0.2 2.5-0.3 0.9-0.1 0.9 0z"/>
				</g>
			</g>
			<g id="&lt;Group&gt;">
				<g id="&lt;Group&gt;">
					<path id="&lt;Path&gt;" class="s8" d="m774.6 279.7c-0.2 0.2-3-1.9-6.1-4.7-3.2-2.9-5.7-5.3-5.5-5.5 0.2-0.3 3 1.9 6.1 4.7 3.2 2.8 5.7 5.3 5.5 5.5z"/>
				</g>
			</g>
			<g id="&lt;Group&gt;">
				<g id="&lt;Group&gt;">
					<path id="&lt;Path&gt;" class="s8" d="m768.6 302.9c0.2 0.2-2.2 2-5.3 3.9-3.2 2-5.8 3.3-6 3.1-0.1-0.2 2.3-2 5.4-4 3.1-1.9 5.8-3.3 5.9-3z"/>
				</g>
			</g>
			<g id="&lt;Group&gt;">
				<g id="&lt;Group&gt;">
					<path id="&lt;Path&gt;" class="s8" d="m793.2 308.6c-0.3-0.1-0.3-3.9 0-8.6 0.3-4.7 0.7-8.5 1-8.5 0.3 0 0.3 3.9 0 8.6-0.3 4.7-0.7 8.5-1 8.5z"/>
				</g>
			</g>
			<g id="&lt;Group&gt;">
				<g id="&lt;Group&gt;">
					<path id="&lt;Path&gt;" class="s8" d="m817 331.7c-0.2 0.2-2.5-2.7-5.5-6-3.1-3.4-5.7-5.9-5.5-6.1 0.1-0.2 3.2 2 6.2 5.4 3.1 3.4 5.1 6.6 4.8 6.7z"/>
				</g>
			</g>
			<g id="&lt;Group&gt;">
				<g id="&lt;Group&gt;">
					<path id="&lt;Path&gt;" class="s8" d="m820.4 283.3c0.2 0.3-2.4 2.3-5.8 4.6-3.4 2.2-6.3 3.9-6.4 3.7-0.2-0.3 2.4-2.3 5.8-4.6 3.4-2.3 6.2-3.9 6.4-3.7z"/>
				</g>
			</g>
			<g id="&lt;Group&gt;">
				<g id="&lt;Group&gt;">
					<path id="&lt;Path&gt;" class="s8" d="m798.8 265.8c0.2 0.3-2.6 2.4-6.3 4.7-3.7 2.4-6.8 4.1-6.9 3.9-0.2-0.3 2.6-2.4 6.3-4.8 3.7-2.3 6.8-4 6.9-3.8z"/>
				</g>
			</g>
			<g id="&lt;Group&gt;">
				<g id="&lt;Group&gt;">
					<path id="&lt;Path&gt;" class="s8" d="m818.3 272.8c-0.3 0.1-1.6-2.7-3-6.3-1.5-3.6-2.4-6.6-2.1-6.7 0.3-0.1 1.6 2.7 3 6.3 1.4 3.6 2.4 6.6 2.1 6.7z"/>
				</g>
			</g>
			<g id="&lt;Group&gt;">
				<g id="&lt;Group&gt;">
					<path id="&lt;Path&gt;" class="s8" d="m845 281.6c-0.2 0.2-2.2-1.5-4.4-3.8-2.3-2.2-4-4.2-3.8-4.4 0.2-0.2 2.2 1.4 4.5 3.7 2.3 2.3 3.9 4.2 3.7 4.5z"/>
				</g>
			</g>
			<g id="&lt;Group&gt;">
				<g id="&lt;Group&gt;">
					<path id="&lt;Path&gt;" class="s8" d="m834.1 301.1c-0.3 0-0.7-2.8-0.9-6.2-0.2-3.3-0.1-6.1 0.2-6.1 0.3 0 0.6 2.7 0.8 6.1 0.2 3.4 0.1 6.1-0.1 6.2z"/>
				</g>
			</g>
			<g id="&lt;Group&gt;">
				<g id="&lt;Group&gt;">
					<path id="&lt;Path&gt;" class="s8" d="m856.2 297c0 0.3-3.1 0.4-7-0.2-3.8-0.6-6.8-1.6-6.7-1.9 0.1-0.3 3.1 0.3 6.9 0.9 3.8 0.5 6.8 0.9 6.8 1.2z"/>
				</g>
			</g>
			<g id="&lt;Group&gt;">
				<g id="&lt;Group&gt;">
					<path id="&lt;Path&gt;" class="s8" d="m766.6 337.3c-0.2 0.1-2-3.1-4-7.3-2-4.1-3.3-7.6-3.1-7.7 0.3-0.1 2.1 3.1 4 7.3 2 4.1 3.4 7.6 3.1 7.7z"/>
				</g>
			</g>
			<g id="&lt;Group&gt;">
				<g id="&lt;Group&gt;">
					<path id="&lt;Path&gt;" class="s8" d="m795.9 368.9c-0.2 0.1-2.4-2.5-4.9-5.8-2.4-3.4-4.2-6.3-4-6.5 0.2-0.1 2.4 2.5 4.9 5.8 2.4 3.4 4.2 6.3 4 6.5z"/>
				</g>
			</g>
			<g id="&lt;Group&gt;">
				<g id="&lt;Group&gt;">
					<path id="&lt;Path&gt;" class="s8" d="m820.3 355.6c0.1 0.3-2.9 1.7-6.7 3.2-3.7 1.4-6.9 2.4-7 2.1-0.1-0.3 2.9-1.7 6.7-3.1 3.7-1.5 6.9-2.4 7-2.2z"/>
				</g>
			</g>
			<g id="&lt;Group&gt;">
				<g id="&lt;Group&gt;">
					<path id="&lt;Path&gt;" class="s8" d="m760.5 381.2c-0.3-0.1 0.6-2.6 1.9-5.5 1.3-2.9 2.6-5.2 2.8-5.1 0.3 0.2-0.6 2.6-1.9 5.5-1.3 3-2.6 5.2-2.8 5.1z"/>
				</g>
			</g>
			<g id="&lt;Group&gt;">
				<g id="&lt;Group&gt;">
					<path id="&lt;Path&gt;" class="s8" d="m741.6 290.8c-0.2 0.1-1.4-2.1-1.9-5.1-0.5-3 0-5.5 0.2-5.4 0.3 0 0.4 2.4 0.8 5.2 0.5 2.9 1.2 5.2 0.9 5.3z"/>
				</g>
			</g>
			<g id="&lt;Group&gt;">
				<g id="&lt;Group&gt;">
					<path id="&lt;Path&gt;" class="s8" d="m775.1 361c-0.2 0.2-2.8-1-6-2.7-3.1-1.8-5.6-3.4-5.4-3.6 0.1-0.3 2.8 0.9 5.9 2.7 3.2 1.7 5.6 3.3 5.5 3.6z"/>
				</g>
			</g>
			<g id="&lt;Group&gt;">
				<g id="&lt;Group&gt;">
					<path id="&lt;Path&gt;" class="s8" d="m794.4 327.6c0.2 0.2-2.2 2.7-5.3 5.6-3.2 2.8-5.9 4.9-6.1 4.7-0.1-0.2 2.2-2.7 5.4-5.5 3.1-2.9 5.8-5 6-4.8z"/>
				</g>
			</g>
			<g id="&lt;Group&gt;" style="opacity: .3">
				<g id="&lt;Group&gt;">
					<path id="&lt;Path&gt;" class="s10" d="m782.5 327c1.3 6.9 3.9 13.8 8.9 18.6 5 4.9 12.8 7.4 19.3 4.8 1.4-0.5 2.8-1.4 3.1-2.9 0.4-1.6-1-3.3-2.5-3.9-1.6-0.7-3.3-0.6-5-0.7-9.7-0.5-18.9-6.5-23.4-15.1"/>
				</g>
			</g>
			<g id="&lt;Group&gt;">
				<g id="&lt;Group&gt;">
					<path id="&lt;Path&gt;" class="s5" d="m808.5 343.1c0 0.1-0.4 0.2-1.3 0.3-0.9 0.1-2.2 0.1-3.7-0.1-1.6-0.2-3.4-0.6-5.4-1.3-2-0.7-4-1.7-6-3.1-2-1.4-3.7-3-5-4.5-1.4-1.7-2.4-3.2-3.1-4.6-0.7-1.5-1.2-2.6-1.4-3.5-0.2-0.8-0.3-1.3-0.2-1.3 0.2-0.1 0.7 1.8 2.2 4.4 0.8 1.3 1.9 2.8 3.2 4.3 1.3 1.5 3 3 4.9 4.4 1.9 1.3 3.9 2.3 5.7 3 1.9 0.7 3.7 1.2 5.2 1.5 3 0.5 4.9 0.3 4.9 0.5z"/>
				</g>
			</g>
		</g>
		<g id="&lt;Group&gt;">
			<g id="&lt;Group&gt;">
				<g id="&lt;Group&gt;">
					<g id="&lt;Group&gt;">
						<path id="&lt;Path&gt;" class="s11" d="m698.4 375.4l29-3.5 20.4 13.4 78.1-18.7 1.8-53.5 34.7-4.5v64.7c-0.4 16.4-14 29.4-30.5 29l-114.3-3.2-4.9-9.7-24.5-0.7z"/>
					</g>
				</g>
			</g>
			<g id="&lt;Group&gt;">
				<g id="&lt;Group&gt;">
					<g id="&lt;Group&gt;">
						<g id="&lt;Group&gt;">
							<path id="&lt;Path&gt;" class="s12" d="m824.9 366.6q0 0-1.5 0.4-1.5 0.4-4.2 1.1c-3.8 1-9.1 2.3-15.7 3.9-13.3 3.2-31.6 7.7-51.7 12.6q-2.5 0.5-4.9 1.1l-0.2 0.1-0.1-0.1c-7.2-4.8-14.1-9.3-20.4-13.5l0.3 0.1c-11.5 1.3-21.4 2.5-29 3.4l0.2-0.2c-3.3 4.2-5.9 7.4-7.7 9.8q-1.3 1.6-2 2.5-0.8 0.9-0.8 0.9 0-0.1 0.6-1 0.8-1 2-2.6c1.8-2.4 4.3-5.7 7.4-9.9l0.1-0.1h0.1c7.6-1 17.5-2.2 29-3.6h0.1 0.1c6.4 4.2 13.2 8.7 20.5 13.4l-0.4-0.1q2.4-0.5 4.8-1.1c20.2-4.8 38.5-9.1 51.9-12.3 6.5-1.5 11.9-2.8 15.7-3.6q2.7-0.6 4.3-1 1.5-0.3 1.5-0.2z"/>
						</g>
					</g>
				</g>
			</g>
			<g id="&lt;Group&gt;">
				<g id="&lt;Group&gt;">
					<g id="&lt;Group&gt;">
						<g id="&lt;Group&gt;">
							<path id="&lt;Path&gt;" class="s12" d="m714.3 383.7c0 0.2-5.1 0.4-11.3 0.4q-1 0-2 0l0.2-0.1c-4 3.4-7.1 5.8-7.3 5.6-0.1-0.1 2.8-2.8 6.8-6.3l0.1-0.1h0.2q1 0 2 0c6.2 0 11.3 0.2 11.3 0.5z"/>
						</g>
					</g>
				</g>
			</g>
			<g id="&lt;Group&gt;">
				<g id="&lt;Group&gt;">
					<g id="&lt;Group&gt;">
						<g id="&lt;Group&gt;">
							<path id="&lt;Path&gt;" class="s12" d="m839.3 375.3c-0.3 0.1-1.8-3.5-5.7-5.9-3.9-2.6-7.9-2.3-7.8-2.6 0-0.1 0.9-0.3 2.5-0.2 1.6 0.1 3.7 0.7 5.8 2 2 1.3 3.5 3 4.3 4.3 0.8 1.4 1 2.4 0.9 2.4z"/>
						</g>
					</g>
				</g>
			</g>
		</g>
	</g>
	<g id="Plant">
		<g id="&lt;Group&gt;">
			<g id="&lt;Group&gt;">
				<g id="&lt;Group&gt;">
					<path id="&lt;Path&gt;" class="s5" d="m208.5 802.5v18h130.6v-18z"/>
				</g>
				<g id="&lt;Group&gt;">
					<path id="&lt;Compound Path&gt;" fill-rule="evenodd" class="s5" d="m339.3 820.7h-131v-18.4h131zm-130.6-0.4h130.2v-17.5h-130.2z"/>
				</g>
			</g>
			<g id="&lt;Group&gt;">
				<g id="&lt;Group&gt;">
					<path id="&lt;Path&gt;" class="s5" d="m220.6 814.5l18.8 92.8h69.6l18.1-86.8z"/>
				</g>
			</g>
			<g id="&lt;Group&gt;">
				<g id="&lt;Group&gt;">
					<path id="&lt;Path&gt;" class="s6" d="m220.6 898.5l10 13.8h84.6l11.9-13.8z"/>
				</g>
			</g>
			<g id="&lt;Group&gt;">
				<g id="&lt;Group&gt;">
					<g id="&lt;Group&gt;">
						<path id="&lt;Path&gt;" class="s5" d="m268.9 817.2c-0.3 0-0.6-42.9-0.7-95.9-0.2-53-0.1-96 0.2-96 0.2 0 0.5 43 0.7 96 0.1 53 0.1 95.9-0.2 95.9z"/>
					</g>
				</g>
			</g>
			<g id="&lt;Group&gt;">
				<g id="&lt;Group&gt;">
					<g id="&lt;Group&gt;">
						<path id="&lt;Path&gt;" class="s5" d="m298 709.7q0 0-0.4 1-0.4 1.1-1.1 2.8-0.4 0.9-0.9 2-0.4 1.1-0.8 2.4-0.5 1.3-1.1 2.8c-0.3 1-0.6 2.1-0.9 3.2-1.4 4.5-2.6 9.9-3.7 16-0.9 6.1-1.6 12.9-2 20-0.6 14.3 0.2 27.2 1 36.5 0.5 4.7 0.9 8.5 1.2 11.1q0.2 1.8 0.3 3 0.1 1 0.1 1-0.1 0-0.3-1-0.2-1.2-0.5-3c-0.4-2.6-0.9-6.3-1.4-11-1-9.3-2-22.3-1.3-36.6 0.3-7.2 1.1-14 2.1-20.1 1.1-6.1 2.3-11.6 3.9-16.1 0.3-1.1 0.6-2.2 1-3.2q0.6-1.4 1.1-2.8 0.5-1.3 0.9-2.4 0.5-1.1 0.9-2 0.9-1.6 1.4-2.7 0.4-0.9 0.5-0.9z"/>
					</g>
				</g>
			</g>
			<g id="&lt;Group&gt;">
				<g id="&lt;Group&gt;">
					<g id="&lt;Group&gt;">
						<path id="&lt;Path&gt;" class="s5" d="m294.7 675q0 0-0.5 1.4-0.5 1.5-1.3 4-0.5 1.3-1 2.8-0.5 1.7-1.1 3.5c-0.7 2.5-1.6 5.3-2.4 8.5q-0.6 2.4-1.3 5-0.6 2.6-1.2 5.4c-1 3.7-1.6 7.8-2.5 12.1-1.4 8.5-2.7 17.9-3.5 27.9-0.9 9.9-1.2 19.4-1.3 28.1-0.1 8.7 0 16.5 0.4 23 0.1 3.3 0.3 6.2 0.5 8.8q0.2 3.9 0.5 6.7 0.2 2.6 0.3 4.2 0.1 1.4 0 1.5 0 0-0.2-1.5-0.2-1.6-0.5-4.2-0.3-2.7-0.6-6.6c-0.3-2.6-0.5-5.6-0.7-8.9-0.4-6.5-0.6-14.3-0.6-23 0.1-8.7 0.4-18.2 1.2-28.2 0.9-10 2.2-19.4 3.7-28 0.9-4.3 1.6-8.3 2.5-12.1q0.7-2.8 1.3-5.4 0.7-2.6 1.4-5c0.8-3.1 1.7-6 2.5-8.4q0.6-1.9 1.2-3.5 0.5-1.6 1-2.9 1-2.4 1.6-3.9 0.5-1.4 0.6-1.3z"/>
					</g>
				</g>
			</g>
			<g id="&lt;Group&gt;">
				<g id="&lt;Group&gt;">
					<g id="&lt;Group&gt;">
						<path id="&lt;Path&gt;" class="s5" d="m260.6 824.8q0 0 0-0.5-0.1-0.5-0.2-1.5-0.1-2-0.3-5.6c-0.4-5.1-0.8-12.2-1.4-21-1.1-17.6-2.7-42-5.7-68.9-1.5-13.4-3.3-26.2-5.1-37.7-1-5.8-1.9-11.3-2.9-16.4-0.9-5.1-1.9-9.8-2.8-14.2-0.8-4.3-1.8-8.2-2.6-11.6-0.7-3.5-1.5-6.4-2.1-8.8q-0.8-3.5-1.3-5.5-0.2-0.9-0.4-1.5-0.1-0.5 0-0.5 0 0 0.1 0.5 0.2 0.5 0.4 1.4 0.6 2 1.6 5.5c0.6 2.4 1.4 5.3 2.2 8.8 0.8 3.4 1.9 7.3 2.8 11.6 0.9 4.3 1.9 9.1 2.9 14.2 1 5.1 1.9 10.6 2.9 16.4 1.9 11.5 3.7 24.3 5.2 37.7 3 26.9 4.5 51.3 5.5 69 0.5 8.8 0.8 16 1 20.9q0.2 3.7 0.2 5.7 0 0.9 0.1 1.5 0 0.5-0.1 0.5z"/>
					</g>
				</g>
			</g>
			<g id="&lt;Group&gt;">
				<g id="&lt;Group&gt;">
					<path id="&lt;Path&gt;" class="s7" d="m267.8 646c-0.5-6.1-6.7-10.7-12.8-10.8-6.1 0-11.8 3.6-15.5 8.5-3.8 4.8-5.8 10.7-7.5 16.6-4.2 14.3-6.4 29.4-4.6 44.2 1.7 14.8 7.7 29.4 18.4 39.9 1.7 1.7 3.9 3.4 6.3 2.9 1.3-0.3 2.4-1.2 3.3-2.1 20.9-18.9 33-47.1 32.2-75.3-0.2-5.6-0.9-11.5-4.1-16.1-3.1-4.7-10.4-9.7-15.7-7.8z"/>
				</g>
			</g>
			<g id="&lt;Group&gt;">
				<g id="&lt;Group&gt;">
					<g id="&lt;Group&gt;">
						<path id="&lt;Path&gt;" class="s7" d="m222.2 597.2q-4.3 7.8-8.6 15.6c-0.2 0.4-0.5 0.8-0.9 0.8-0.5 0-0.8-0.4-1-0.8q-11.4-17.4-22.8-34.9l5.2-3z"/>
					</g>
				</g>
				<g id="&lt;Group&gt;" style="opacity: .2">
					<g id="&lt;Group&gt;">
						<g id="&lt;Group&gt;">
							<path id="&lt;Path&gt;" class="s10" d="m222.2 597.2q-4.3 7.8-8.6 15.6c-0.2 0.4-0.5 0.8-0.9 0.8-0.5 0-0.8-0.4-1-0.8q-11.4-17.4-22.8-34.9l5.2-3z"/>
						</g>
					</g>
				</g>
				<g id="&lt;Group&gt;">
					<g id="&lt;Group&gt;">
						<path id="&lt;Path&gt;" class="s7" d="m268.4 625.3q-38.9-22.9-77.7-45.8c-0.8-0.5-1.6-1-1.9-1.9-0.3-1.2 0.6-2.3 1.4-3.1 10.7-11 26.2-17.4 41.5-16.3 15.3 1.1 30 9.9 37.5 23.3 7.5 13.4 7.8 31.1-0.8 43.8z"/>
					</g>
				</g>
				<g id="&lt;Group&gt;">
					<g id="&lt;Group&gt;">
						<g id="&lt;Group&gt;">
							<path id="&lt;Path&gt;" class="s5" d="m201.9 564.9q0-0.1 1-0.2c0.7 0 1.7-0.1 3-0.1 2.5-0.1 6.2 0.1 10.7 0.8 4.5 0.8 9.8 2.2 15.4 4.7 5.5 2.5 11.2 6 16.4 10.7 5.2 4.7 9.3 10.1 12.3 15.3 3 5.3 5 10.4 6.2 14.8 1.2 4.4 1.7 8.1 1.9 10.7 0.2 1.2 0.1 2.2 0.2 2.9q0 1-0.1 1c0 0-0.1-1.4-0.5-3.9-0.3-2.5-0.9-6.1-2.1-10.5-2.5-8.6-8.2-20.3-18.5-29.6-10.3-9.3-22.4-13.8-31.3-15.4-4.4-0.8-8.1-1.1-10.6-1.1-2.6-0.1-4-0.1-4-0.1z"/>
						</g>
					</g>
				</g>
				<g id="&lt;Group&gt;">
					<g id="&lt;Group&gt;">
						<g id="&lt;Group&gt;">
							<path id="&lt;Path&gt;" class="s5" d="m257.8 593.7c0.1 0.1-1.4 0.8-3.9 1.8-2.5 0.9-5.9 2.2-9.8 3.4-3.8 1.2-7.4 2.2-10 2.9-2.6 0.6-4.2 0.9-4.2 0.8 0-0.2 1.5-0.7 4.1-1.5 2.8-0.9 6.2-1.9 9.8-3.1 3.7-1.2 7-2.2 9.9-3.2 2.5-0.8 4.1-1.2 4.1-1.1z"/>
						</g>
					</g>
				</g>
				<g id="&lt;Group&gt;">
					<g id="&lt;Group&gt;">
						<g id="&lt;Group&gt;">
							<path id="&lt;Path&gt;" class="s5" d="m245.6 560.8c0.3 0 0.8 3.9 0.9 8.7 0.2 4.8-0.2 8.7-0.4 8.7-0.3 0-0.4-3.9-0.5-8.7-0.1-4.8-0.2-8.6 0-8.7z"/>
						</g>
					</g>
				</g>
				<g id="&lt;Group&gt;">
					<g id="&lt;Group&gt;">
						<g id="&lt;Group&gt;">
							<path id="&lt;Path&gt;" class="s5" d="m190 578.6c0-0.1 2.1-0.9 5.7-2 3.5-1.1 8.4-2.4 13.9-3.8 5.5-1.3 10.5-2.3 14.1-2.9 3.6-0.7 5.9-0.9 5.9-0.8 0.1 0.1-2.2 0.6-5.8 1.4-3.6 0.8-8.5 1.9-14 3.3-5.5 1.3-10.4 2.5-13.9 3.5-3.6 0.9-5.8 1.4-5.9 1.3z"/>
						</g>
					</g>
				</g>
			</g>
			<g id="&lt;Group&gt;">
				<g id="&lt;Group&gt;">
					<g id="&lt;Group&gt;">
						<path id="&lt;Path&gt;" class="s7" d="m232.6 631.6c-6.7-5.1-13.8-6.1-22.2-5.8-8.3 0.4-16.5 2.9-24.2 6.3-13.1 5.7-25.4 14.2-33.2 26.1-7.8 12-10.5 27.8-4.7 40.9 0.6 1.3 1.4 2.6 2.7 3.2 1.4 0.6 2.9 0.1 4.4-0.4 14.9-4.8 29.8-9.7 43.5-17.3 13.7-7.6 26.2-18.2 33.5-32 1.8-3.4 3.3-6.9 3.6-10.7 0.3-3.7-0.8-7.7-3.4-10.3z"/>
					</g>
				</g>
				<g id="&lt;Group&gt;">
					<g id="&lt;Group&gt;">
						<g id="&lt;Group&gt;">
							<path id="&lt;Path&gt;" class="s5" d="m232.7 630q0 0-1.1 0.4-1.2 0.4-3.1 1.1-1 0.3-2.3 0.7c-0.8 0.3-1.7 0.7-2.6 1.1-1.9 0.7-4.1 1.5-6.4 2.6q-1.7 0.8-3.6 1.7c-1.3 0.6-2.6 1.3-3.9 2-2.7 1.3-5.4 3-8.3 4.7-5.7 3.6-11.8 8-17.7 13.1-5.8 5.2-10.9 10.6-15.2 15.8-2.1 2.7-4.1 5.2-5.7 7.7-0.9 1.2-1.8 2.4-2.5 3.6q-1.1 1.7-2.1 3.4c-1.4 2.1-2.5 4.2-3.5 6-0.4 0.8-0.9 1.7-1.3 2.4q-0.6 1.2-1 2.2-0.9 1.8-1.5 2.9-0.5 1.1-0.6 1 0 0 0.4-1 0.5-1.2 1.3-3.1 0.5-1 1-2.2c0.4-0.7 0.8-1.6 1.3-2.5 0.9-1.8 1.9-3.9 3.3-6.1q1-1.6 2.1-3.4c0.7-1.2 1.6-2.4 2.4-3.7 1.7-2.5 3.7-5 5.7-7.7 4.3-5.3 9.4-10.8 15.3-16 5.9-5.2 12-9.5 17.8-13.1 3-1.7 5.7-3.4 8.4-4.7 1.4-0.7 2.7-1.4 4-2q1.9-0.8 3.7-1.6c2.3-1.1 4.5-1.8 6.4-2.5 1-0.4 1.9-0.7 2.7-1q1.2-0.3 2.3-0.7 1.9-0.5 3.2-0.9 1.1-0.3 1.1-0.2z"/>
						</g>
					</g>
				</g>
				<g id="&lt;Group&gt;">
					<g id="&lt;Group&gt;">
						<g id="&lt;Group&gt;">
							<path id="&lt;Path&gt;" class="s5" d="m180.5 658.2c0.1 0.3-7.2 2.6-16.2 5.3-9.1 2.6-16.5 4.6-16.5 4.3-0.1-0.2 7.2-2.6 16.2-5.2 9.1-2.7 16.4-4.6 16.5-4.4z"/>
						</g>
					</g>
				</g>
				<g id="&lt;Group&gt;">
					<g id="&lt;Group&gt;">
						<g id="&lt;Group&gt;">
							<path id="&lt;Path&gt;" class="s5" d="m179.8 694.1c-0.1 0-0.2-2-0.3-5.1-0.1-3.1-0.1-7.4 0-12.2 0.2-4.8 0.4-9.1 0.7-12.2 0.2-3.1 0.5-5.1 0.6-5.1 0.1 0.1 0.1 2 0 5.1-0.1 3.4-0.2 7.6-0.3 12.2-0.2 4.6-0.3 8.8-0.4 12.2 0 3.1-0.1 5.1-0.3 5.1z"/>
						</g>
					</g>
				</g>
				<g id="&lt;Group&gt;">
					<g id="&lt;Group&gt;">
						<g id="&lt;Group&gt;">
							<path id="&lt;Path&gt;" class="s5" d="m210.6 678.4c-0.3 0.1-1.1-8.7-1.9-19.6-0.7-10.9-1.1-19.7-0.9-19.7 0.3 0 1.1 8.8 1.9 19.6 0.7 10.9 1.1 19.7 0.9 19.7z"/>
						</g>
					</g>
				</g>
				<g id="&lt;Group&gt;">
					<g id="&lt;Group&gt;">
						<g id="&lt;Group&gt;">
							<path id="&lt;Path&gt;" class="s5" d="m172.3 638.3c0-0.2 2-0.2 5.2-0.2 3.2 0 7.7 0.1 12.6 0.3 4.9 0.1 9.3 0.3 12.5 0.5 3.2 0.2 5.2 0.4 5.2 0.5 0 0.2-2 0.2-5.2 0.2-3.2 0-7.7-0.1-12.6-0.3-4.9-0.2-9.3-0.4-12.5-0.5-3.2-0.2-5.2-0.4-5.2-0.5z"/>
						</g>
					</g>
				</g>
			</g>
			<g id="&lt;Group&gt;">
				<g id="&lt;Group&gt;">
					<g id="&lt;Group&gt;">
						<path id="&lt;Path&gt;" class="s5" d="m249.1 748.6q-0.1-0.1-0.1-1.1-0.1-1.2-0.2-3.1c-0.1-2.6-0.1-6.5 0-11.2 0.1-4.7 0.4-10.4 1-16.6 0.6-6.3 1.4-13.1 2.7-20.3 1.3-7.1 2.8-13.8 4.4-19.9 1.6-6 3.3-11.4 4.9-15.9 1.5-4.5 2.8-8.1 3.9-10.5q0.7-1.8 1.2-2.9 0.4-0.9 0.4-0.9 0.1 0-0.3 1-0.4 1.1-1 2.9c-0.9 2.5-2.2 6.1-3.6 10.6-1.5 4.5-3.1 9.9-4.7 15.9-1.5 6.1-3 12.8-4.3 19.9-1.2 7.1-2.1 13.9-2.8 20.2-0.6 6.2-1 11.8-1.1 16.5-0.2 4.8-0.3 8.6-0.3 11.2q0 1.9 0 3.1-0.1 1-0.1 1.1z"/>
					</g>
				</g>
			</g>
			<g id="&lt;Group&gt;">
				<g id="&lt;Group&gt;">
					<g id="&lt;Group&gt;">
						<path id="&lt;Path&gt;" class="s5" d="m253.2 695.6c0.1 0.1-1.1 1.4-3.1 3.4-2 2-4.9 4.7-8.1 7.5-3.3 2.9-6.3 5.3-8.6 7.1-2.2 1.7-3.7 2.7-3.7 2.6-0.1-0.1 1.2-1.3 3.3-3.1 2.4-2.1 5.2-4.6 8.4-7.3 3.1-2.7 5.9-5.2 8.2-7.3 2.2-1.9 3.5-3 3.6-2.9z"/>
					</g>
				</g>
			</g>
			<g id="&lt;Group&gt;">
				<g id="&lt;Group&gt;">
					<g id="&lt;Group&gt;">
						<path id="&lt;Path&gt;" class="s5" d="m277.8 715.4c-0.1 0-1.4-1.7-3.3-4.6-2.2-3.1-4.8-6.9-7.7-11.2-3-4.2-5.7-8-7.8-11.1-2.1-2.8-3.3-4.6-3.2-4.7 0.1 0 1.5 1.6 3.7 4.3 2.1 2.8 5 6.6 8.1 11 3 4.3 5.6 8.4 7.4 11.3 1.8 3 2.9 4.9 2.8 5z"/>
					</g>
				</g>
			</g>
			<g id="&lt;Group&gt;">
				<g id="&lt;Group&gt;">
					<g id="&lt;Group&gt;">
						<path id="&lt;Path&gt;" class="s5" d="m264.9 653.1c0.1 0.2-8 5.7-18.2 12.3-10.3 6.5-18.6 11.7-18.8 11.5-0.1-0.2 8-5.7 18.3-12.3 10.2-6.6 18.6-11.7 18.7-11.5z"/>
					</g>
				</g>
			</g>
			<g id="&lt;Group&gt;">
				<g id="&lt;Group&gt;">
					<g id="&lt;Group&gt;">
						<path id="&lt;Path&gt;" class="s5" d="m287.9 678c-0.2 0.1-5.7-5-12.3-11.5-6.7-6.4-11.9-11.9-11.7-12 0.1-0.2 5.7 4.9 12.3 11.4 6.7 6.5 11.9 11.9 11.7 12.1z"/>
					</g>
				</g>
			</g>
			<g id="&lt;Group&gt;">
				<g id="&lt;Group&gt;">
					<g id="&lt;Group&gt;">
						<path id="&lt;Path&gt;" class="s7" d="m293.7 677.5l7-0.6c5-0.4 9.8-1.9 14.2-4.4 2.1-1.2 4.3-2.4 6.6-3.3 8.6-3.4 18.3-2.8 27.6-3.3 15.2-0.8 30.3-4.6 44-11.2 0.8-0.4 1.5-1 1.9-1.8 1.5-2.6-1.2-4.9-3.5-6.4-11.8-7.2-23.8-14.6-37.2-18.2-13.4-3.6-28.6-3-40 4.8-13.4 9.3-18.3 28.2-20.6 44.4z"/>
					</g>
				</g>
				<g id="&lt;Group&gt;">
					<g id="&lt;Group&gt;">
						<g id="&lt;Group&gt;">
							<path id="&lt;Path&gt;" class="s5" d="m395.2 652.1q0 0-1.2-0.6-1.3-0.7-3.3-1.7c-2.9-1.6-7-3.8-12.3-6.3-5.2-2.5-11.6-5.3-19-7.3-7.3-2.1-15.8-3.1-24.6-2-8.7 1.1-16.8 4.5-22.4 9.6-5.8 5.1-9.3 11.2-11.7 16.4-2.5 5.3-4 9.8-5.1 12.8q-0.8 2.2-1.3 3.5-0.4 1.3-0.4 1.3-0.1-0.1 0.3-1.3 0.4-1.4 1-3.6c1-3.1 2.5-7.6 4.9-12.9 2.4-5.3 5.9-11.6 11.7-16.8 5.8-5.3 14-8.8 22.9-9.9 8.9-1.2 17.5-0.1 24.9 2 7.5 2.1 13.9 5 19.1 7.6 5.2 2.6 9.3 4.9 12.2 6.5q2 1.2 3.2 1.9 1.1 0.7 1.1 0.8z"/>
						</g>
					</g>
				</g>
				<g id="&lt;Group&gt;">
					<g id="&lt;Group&gt;">
						<g id="&lt;Group&gt;">
							<path id="&lt;Path&gt;" class="s5" d="m378.4 661.1c-0.2 0.2-9.4-5.7-20.5-13.2-11.2-7.6-20.1-13.8-20-14.1 0.2-0.2 9.3 5.8 20.5 13.3 11.2 7.5 20.1 13.8 20 14z"/>
						</g>
					</g>
				</g>
				<g id="&lt;Group&gt;">
					<g id="&lt;Group&gt;">
						<g id="&lt;Group&gt;">
							<path id="&lt;Path&gt;" class="s5" d="m369.6 633c0 0.2-3.2 1-7.2 1.4-4 0.4-7.3 0.1-7.3-0.1 0-0.3 3.2-0.5 7.2-0.8 4-0.4 7.2-0.8 7.3-0.5z"/>
						</g>
					</g>
				</g>
				<g id="&lt;Group&gt;">
					<g id="&lt;Group&gt;">
						<g id="&lt;Group&gt;">
							<path id="&lt;Path&gt;" class="s5" d="m328.5 625.6c0.2 0.1-1.2 2.8-3.1 6-1.8 3.2-3.5 5.7-3.8 5.6-0.2-0.2 1.2-2.9 3-6.1 1.9-3.2 3.6-5.6 3.9-5.5z"/>
						</g>
					</g>
				</g>
				<g id="&lt;Group&gt;">
					<g id="&lt;Group&gt;">
						<g id="&lt;Group&gt;">
							<path id="&lt;Path&gt;" class="s5" d="m336.7 666.5c-0.1 0.1-1.8-0.8-4.4-2.4-2.7-1.6-6.3-4-10.1-6.7-3.8-2.8-7.2-5.4-9.6-7.4-2.4-1.9-3.9-3.1-3.8-3.2 0.1-0.1 1.7 0.9 4.2 2.7 2.7 2 6.1 4.4 9.8 7.1 3.8 2.8 7.3 5.2 9.8 7 2.6 1.7 4.1 2.8 4.1 2.9z"/>
						</g>
					</g>
				</g>
			</g>
			<g id="&lt;Group&gt;">
				<g id="&lt;Group&gt;">
					<g id="&lt;Group&gt;">
						<path id="&lt;Path&gt;" class="s7" d="m304 707.2c-6.7-1.7-14.6 4.8-16 11.5-1.4 6.8 1.2 13.7 4.1 20 6.6 13.8 15.7 26.6 27.7 36.2 11.9 9.5 26.9 15.6 42.2 15.5-2.8-13.1 0.8-26.8-0.8-40.2-1.4-11.6-6.8-22.7-15.1-31-8.3-8.2-19.5-13.5-31.2-14.8-4.2-0.4-9.2-1.1-10.9 2.8z"/>
					</g>
				</g>
				<g id="&lt;Group&gt;">
					<g id="&lt;Group&gt;">
						<g id="&lt;Group&gt;">
							<path id="&lt;Path&gt;" class="s5" d="m362 790.4q0 0.1-0.9-0.4c-0.6-0.4-1.5-0.9-2.5-1.7-2.1-1.6-4.5-4.7-6.6-8.8-1.1-2.1-2.3-4.3-3.4-6.8q-1.7-3.8-3.6-8c-1.3-2.8-2.7-5.7-4.5-8.5-1.7-2.8-3.7-5.6-6-8.3-4.6-5.3-9.5-10-13.8-14.4-4.3-4.4-7.9-8.7-10.5-12.6-2.6-3.9-4.2-7.3-5.1-9.8q-0.6-1.8-0.9-2.8-0.2-1-0.2-1.1c0.1 0 0.5 1.4 1.5 3.8 1 2.4 2.6 5.8 5.3 9.5 2.6 3.8 6.2 8 10.5 12.4 4.3 4.4 9.3 9 13.9 14.4 2.3 2.8 4.4 5.6 6.1 8.4 1.8 2.9 3.2 5.9 4.4 8.7q1.9 4.2 3.6 7.9c1.1 2.5 2.2 4.8 3.3 6.9 2 4.1 4.2 7.2 6.2 8.8 2 1.7 3.3 2.3 3.2 2.4z"/>
						</g>
					</g>
				</g>
				<g id="&lt;Group&gt;">
					<g id="&lt;Group&gt;">
						<g id="&lt;Group&gt;">
							<path id="&lt;Path&gt;" class="s5" d="m327.5 779.5c-0.2 0 0.1-1.7 0.6-4.5 0.5-2.7 1.4-6.5 2.5-10.6 1.2-4.2 2.4-7.8 3.4-10.4 1-2.7 1.7-4.3 1.8-4.2 0.2 0-0.3 1.7-1.2 4.4-0.8 2.6-1.9 6.3-3.1 10.4-1.1 4.1-2.1 7.8-2.8 10.6-0.7 2.7-1.1 4.3-1.2 4.3z"/>
						</g>
					</g>
				</g>
				<g id="&lt;Group&gt;">
					<g id="&lt;Group&gt;">
						<g id="&lt;Group&gt;">
							<path id="&lt;Path&gt;" class="s5" d="m360.8 747.3c-0.1 0.1-1.9-0.3-4.7-1.1-2.9-0.7-6.9-1.8-11.3-2.8-4.4-1-8.5-1.7-11.4-2.3-2.9-0.6-4.7-0.9-4.7-1 0-0.2 1.8 0 4.8 0.4 3 0.3 7 1 11.5 2 4.4 1 8.4 2.2 11.2 3.1 2.9 0.9 4.6 1.6 4.6 1.7z"/>
						</g>
					</g>
				</g>
				<g id="&lt;Group&gt;">
					<g id="&lt;Group&gt;">
						<g id="&lt;Group&gt;">
							<path id="&lt;Path&gt;" class="s5" d="m302.7 756.7c-0.2-0.1 0.1-2.1 0.7-5.3 0.6-3.1 1.5-7.5 2.8-12.3 1.2-4.8 2.5-9.1 3.6-12.2 1-3 1.8-4.9 1.9-4.9 0.1 0.1-0.4 2-1.3 5.1-0.9 3.1-2.1 7.4-3.3 12.2-1.3 4.8-2.3 9.1-3.1 12.3-0.7 3.1-1.2 5.1-1.3 5.1z"/>
						</g>
					</g>
				</g>
				<g id="&lt;Group&gt;">
					<g id="&lt;Group&gt;">
						<g id="&lt;Group&gt;">
							<path id="&lt;Path&gt;" class="s5" d="m345.4 719.2c0 0.3-8.3-0.4-18.6-1.5-10.3-1.1-18.6-2.2-18.5-2.4 0-0.3 8.3 0.4 18.6 1.5 10.3 1.1 18.6 2.2 18.5 2.4z"/>
						</g>
					</g>
				</g>
			</g>
			<g id="&lt;Group&gt;">
				<g id="&lt;Group&gt;">
					<g id="&lt;Group&gt;">
						<path id="&lt;Path&gt;" class="s6" d="m339.3 820.4c0 0.3-29.3 0.5-65.5 0.5-36.2 0-65.5-0.2-65.5-0.5 0-0.2 29.3-0.5 65.5-0.5 36.2 0 65.5 0.3 65.5 0.5z"/>
					</g>
				</g>
			</g>
			<g id="&lt;Group&gt;">
				<g id="&lt;Group&gt;">
					<g id="&lt;Group&gt;">
						<path id="&lt;Path&gt;" class="s6" d="m318.9 858.2c0 0.2-19.8 0.4-44.1 0.4-24.4 0-44.2-0.2-44.2-0.4 0-0.3 19.8-0.5 44.2-0.5 24.3 0 44.1 0.2 44.1 0.5z"/>
					</g>
				</g>
			</g>
			<g id="&lt;Group&gt;">
				<g id="&lt;Group&gt;">
					<g id="&lt;Group&gt;">
						<path id="&lt;Path&gt;" class="s6" d="m319.7 863.6c0 0.2-19.8 0.4-44.2 0.4-24.3 0-44.1-0.2-44.1-0.4 0-0.3 19.8-0.5 44.1-0.5 24.4 0 44.2 0.2 44.2 0.5z"/>
					</g>
				</g>
			</g>
			<g id="&lt;Group&gt;">
				<g id="&lt;Group&gt;">
					<g id="&lt;Group&gt;">
						<path id="&lt;Path&gt;" class="s6" d="m319.7 853.7c0 0.3-20.5 0.5-45.7 0.5-25.2 0-45.6-0.2-45.6-0.5 0-0.2 20.4-0.4 45.6-0.4 25.2 0 45.7 0.2 45.7 0.4z"/>
					</g>
				</g>
			</g>
		</g>
	</g>
</svg>